<svg baseProfile="tiny" height="800" version="1.2" viewBox="-400 -400 800 800" width="800" xmlns="http://www.w3.org/2000/svg" xmlns:ev="http://www.w3.org/2001/xml-events" xmlns:xlink="http://www.w3.org/1999/xlink"><defs /><rect fill="#000000" height="800" width="800" x="-400" y="-400" /><g id="viewport"><g id="layer-engraved"><g id="bearing-rose"><circle cx="0" cy="0" fill="none" r="78" stroke="#f5d020" stroke-width="0.5" /><circle cx="0" cy="0" fill="none" r="84" stroke="#f5d020" stroke-width="0.5" /><line stroke="#f5d020" stroke-width="0.6" x1="84.0" x2="94.0" y1="-0.0" y2="-0.0" /><line stroke="#f5d020" stroke-width="0.6" x1="82.72385125302547" x2="86.66308226507431" y1="-14.586446924022148" y2="-15.281039634689868" /><line stroke="#f5d020" stroke-width="0.6" x1="78.9341801460163" x2="82.69295062915994" y1="-28.729692039356173" y2="-30.097772612658847" /><line stroke="#f5d020" stroke-width="0.6" x1="72.74613391789285" x2="77.94228634059948" y1="-41.99999999999999" y2="-44.99999999999999" /><line stroke="#f5d020" stroke-width="0.6" x1="64.34773322199415" x2="67.41191099447006" y1="-53.9941592136693" y2="-56.56530965241545" /><line stroke="#f5d020" stroke-width="0.6" x1="53.994159213669306" x2="56.565309652415465" y1="-64.34773322199415" y2="-67.41191099447006" /><line stroke="#f5d020" stroke-width="0.6" x1="42.00000000000001" x2="45.00000000000001" y1="-72.74613391789285" y2="-77.94228634059948" /><line stroke="#f5d020" stroke-width="0.6" x1="28.72969203935618" x2="30.097772612658858" y1="-78.9341801460163" y2="-82.69295062915994" /><line stroke="#f5d020" stroke-width="0.6" x1="14.586446924022155" x2="15.281039634689876" y1="-82.72385125302547" y2="-86.66308226507431" /><line stroke="#f5d020" stroke-width="0.6" x1="5.143516556418883e-15" x2="5.75583995599256e-15" y1="-84.0" y2="-94.0" /><line stroke="#f5d020" stroke-width="0.6" x1="-14.586446924022145" x2="-15.281039634689867" y1="-82.72385125302547" y2="-86.66308226507431" /><line stroke="#f5d020" stroke-width="0.6" x1="-28.729692039356173" x2="-30.097772612658847" y1="-78.9341801460163" y2="-82.69295062915994" /><line stroke="#f5d020" stroke-width="0.6" x1="-41.999999999999986" x2="-44.999999999999986" y1="-72.74613391789285" y2="-77.94228634059948" /><line stroke="#f5d020" stroke-width="0.6" x1="-53.994159213669306" x2="-56.565309652415465" y1="-64.34773322199415" y2="-67.41191099447006" /><line stroke="#f5d020" stroke-width="0.6" x1="-64.34773322199415" x2="-67.41191099447005" y1="-53.99415921366931" y2="-56.56530965241547" /><line stroke="#f5d020" stroke-width="0.6" x1="-72.74613391789285" x2="-77.94228634059948" y1="-41.99999999999999" y2="-44.99999999999999" /><line stroke="#f5d020" stroke-width="0.6" x1="-78.9341801460163" x2="-82.69295062915994" y1="-28.729692039356188" y2="-30.09777261265886" /><line stroke="#f5d020" stroke-width="0.6" x1="-82.72385125302547" x2="-86.66308226507431" y1="-14.586446924022143" y2="-15.281039634689865" /><line stroke="#f5d020" stroke-width="0.6" x1="-84.0" x2="-94.0" y1="-1.0287033112837767e-14" y2="-1.151167991198512e-14" /><line stroke="#f5d020" stroke-width="0.6" x1="-82.72385125302547" x2="-86.66308226507431" y1="14.586446924022159" y2="15.281039634689881" /><line stroke="#f5d020" stroke-width="0.6" x1="-78.9341801460163" x2="-82.69295062915994" y1="28.729692039356166" y2="30.097772612658844" /><line stroke="#f5d020" stroke-width="0.6" x1="-72.74613391789285" x2="-77.94228634059948" y1="42.00000000000001" y2="45.00000000000001" /><line stroke="#f5d020" stroke-width="0.6" x1="-64.34773322199415" x2="-67.41191099447006" y1="53.9941592136693" y2="56.56530965241545" /><line stroke="#f5d020" stroke-width="0.6" x1="-53.99415921366931" x2="-56.56530965241547" y1="64.34773322199415" y2="67.41191099447005" /><line stroke="#f5d020" stroke-width="0.6" x1="-42.000000000000036" x2="-45.00000000000004" y1="72.74613391789282" y2="77.94228634059945" /><line stroke="#f5d020" stroke-width="0.6" x1="-28.72969203935616" x2="-30.097772612658833" y1="78.9341801460163" y2="82.69295062915994" /><line stroke="#f5d020" stroke-width="0.6" x1="-14.586446924022148" x2="-15.281039634689868" y1="82.72385125302547" y2="86.66308226507431" /><line stroke="#f5d020" stroke-width="0.6" x1="-1.543054966925665e-14" x2="-1.7267519867977678e-14" y1="84.0" y2="94.0" /><line stroke="#f5d020" stroke-width="0.6" x1="14.586446924022118" x2="15.281039634689837" y1="82.72385125302549" y2="86.66308226507431" /><line stroke="#f5d020" stroke-width="0.6" x1="28.729692039356195" x2="30.097772612658872" y1="78.9341801460163" y2="82.69295062915994" /><line stroke="#f5d020" stroke-width="0.6" x1="42.00000000000001" x2="45.00000000000001" y1="72.74613391789285" y2="77.94228634059948" /><line stroke="#f5d020" stroke-width="0.6" x1="53.9941592136693" x2="56.56530965241545" y1="64.34773322199416" y2="67.41191099447008" /><line stroke="#f5d020" stroke-width="0.6" x1="64.34773322199413" x2="67.41191099447005" y1="53.99415921366933" y2="56.565309652415486" /><line stroke="#f5d020" stroke-width="0.6" x1="72.74613391789282" x2="77.94228634059945" y1="42.000000000000036" y2="45.00000000000004" /><line stroke="#f5d020" stroke-width="0.6" x1="78.9341801460163" x2="82.69295062915994" y1="28.729692039356163" y2="30.097772612658837" /><line stroke="#f5d020" stroke-width="0.6" x1="82.72385125302547" x2="86.66308226507431" y1="14.586446924022152" y2="15.281039634689874" /><text fill="#f5d020" font-family="Orbitron, monospace" font-size="9" paint-order="stroke" stroke="#000000" stroke-linejoin="round" stroke-width="3" text-anchor="middle" x="102.0" y="3.0">000</text><text fill="#f5d020" font-family="Orbitron, monospace" font-size="9" paint-order="stroke" stroke="#000000" stroke-linejoin="round" stroke-width="3" text-anchor="middle" x="6.245698675651501e-15" y="-99.0">090</text><text fill="#f5d020" font-family="Orbitron, monospace" font-size="9" paint-order="stroke" stroke="#000000" stroke-linejoin="round" stroke-width="3" text-anchor="middle" x="-102.0" y="2.9999999999999876">180</text><text fill="#f5d020" font-family="Orbitron, monospace" font-size="9" paint-order="stroke" stroke="#000000" stroke-linejoin="round" stroke-width="3" text-anchor="middle" x="-1.8737096026954503e-14" y="105.0">270</text><text fill="#7a6810" font-family="Orbitron, monospace" font-size="7" paint-order="stroke" stroke="#000000" stroke-linejoin="round" stroke-width="3" text-anchor="middle" x="83.13843876330611" y="-45.99999999999999">030</text><text fill="#7a6810" font-family="Orbitron, monospace" font-size="7" paint-order="stroke" stroke="#000000" stroke-linejoin="round" stroke-width="3" text-anchor="middle" x="48.000000000000014" y="-81.13843876330611">060</text><text fill="#7a6810" font-family="Orbitron, monospace" font-size="7" paint-order="stroke" stroke="#000000" stroke-linejoin="round" stroke-width="3" text-anchor="middle" x="-47.999999999999986" y="-81.13843876330611">120</text><text fill="#7a6810" font-family="Orbitron, monospace" font-size="7" paint-order="stroke" stroke="#000000" stroke-linejoin="round" stroke-width="3" text-anchor="middle" x="-83.13843876330611" y="-45.99999999999999">150</text><text fill="#7a6810" font-family="Orbitron, monospace" font-size="7" paint-order="stroke" stroke="#000000" stroke-linejoin="round" stroke-width="3" text-anchor="middle" x="-83.13843876330611" y="50.000000000000014">210</text><text fill="#7a6810" font-family="Orbitron, monospace" font-size="7" paint-order="stroke" stroke="#000000" stroke-linejoin="round" stroke-width="3" text-anchor="middle" x="-48.00000000000004" y="85.13843876330608">240</text><text fill="#7a6810" font-family="Orbitron, monospace" font-size="7" paint-order="stroke" stroke="#000000" stroke-linejoin="round" stroke-width="3" text-anchor="middle" x="48.000000000000014" y="85.13843876330611">300</text><text fill="#7a6810" font-family="Orbitron, monospace" font-size="7" paint-order="stroke" stroke="#000000" stroke-linejoin="round" stroke-width="3" text-anchor="middle" x="83.13843876330608" y="50.00000000000004">330</text></g><g data-body-id="coyote"><circle cx="0" cy="0" fill="none" r="28.0" stroke="#e62a18" stroke-dasharray="3 2" stroke-width="2.0" /><circle cx="0" cy="0" fill="none" r="20.0" stroke="#e62a18" stroke-width="1.2" /><line stroke="#e62a18" stroke-width="1.4" x1="14.0" x2="22.0" y1="0.0" y2="0.0" /><line stroke="#e62a18" stroke-width="1.4" x1="-14.0" x2="-22.0" y1="0.0" y2="0.0" /><line stroke="#e62a18" stroke-width="1.4" x1="0.0" x2="0.0" y1="14.0" y2="22.0" /><line stroke="#e62a18" stroke-width="1.4" x1="0.0" x2="0.0" y1="-14.0" y2="-22.0" /><circle cx="0" cy="0" fill="#f5d020" r="6.0" stroke="#f5d020" /></g><text fill="#e62a18" font-family="Orbitron, monospace" font-size="11" font-weight="700" paint-order="stroke" stroke="#000000" stroke-linejoin="round" stroke-width="3" text-anchor="middle" x="0" y="-36.0">COYOTE</text><g data-body-id="broken_drift"><circle cx="72.16878364870324" cy="-41.666666666666664" fill="#e62a18" r="0.8" /><circle cx="69.96577349746991" cy="-45.26847670670158" fill="#e62a18" r="0.8" /><circle cx="67.5831622091251" cy="-48.75408321627564" fill="#e62a18" r="0.8" /><circle cx="65.02706591267433" cy="-52.11453869346975" fill="#e62a18" r="0.8" /><circle cx="62.30404607065076" cy="-55.34121689726992" fill="#e62a18" r="0.8" /><circle cx="59.42109263593503" cy="-58.4258349910044" fill="#e62a18" r="0.8" /><circle cx="56.385606108646456" cy="-61.36047480426645" fill="#e62a18" r="0.8" /><circle cx="53.2053785391653" cy="-64.13760315874437" fill="#e62a18" r="0.8" /><circle cx="49.88857352605125" cy="-66.75009120578206" fill="#e62a18" r="0.8" /><circle cx="46.44370526020303" cy="-69.19123272603137" fill="#e62a18" r="0.8" /><circle cx="42.87961666905241" cy="-71.45476134422093" fill="#e62a18" r="0.8" /><circle cx="39.20545671689631" cy="-73.5348666148516" fill="#e62a18" r="0.8" /><circle cx="35.43065691963672" cy="-75.42620893752678" fill="#e62a18" r="0.8" /><circle cx="31.56490713421466" cy="-77.12393326362998" fill="#e62a18" r="0.8" /><circle cx="27.61813068488632" cy="-78.62368155916504" fill="#e62a18" r="0.8" /><circle cx="23.600458890192016" cy="-79.92160399176686" fill="#e62a18" r="0.8" /><circle cx="19.522205056006854" cy="-81.01436881316589" fill="#e62a18" r="0.8" /><circle cx="15.393838001432453" cy="-81.89917091173817" fill="#e62a18" r="0.8" /><circle cx="11.225955185488406" cy="-82.57373901318658" fill="#e62a18" r="0.8" /><circle cx="7.029255503587083" cy="-83.03634151086942" fill="#e62a18" r="0.8" /><circle cx="2.814511823622358" cy="-83.28579091080984" fill="#e62a18" r="0.8" /><circle cx="-1.4074566678275988" cy="-83.32144687997582" fill="#e62a18" r="0.8" /><circle cx="-5.625812238197115" cy="-83.1432178900059" fill="#e62a18" r="0.8" /><circle cx="-9.829726429237175" cy="-82.75156145216114" fill="#e62a18" r="0.8" /><circle cx="-14.008407853512336" cy="-82.14748294290033" fill="#e62a18" r="0.8" /><circle cx="-18.151129895737615" cy="-81.33253302309295" fill="#e62a18" r="0.8" /><circle cx="-22.24725824784598" cy="-80.30880365749508" fill="#e62a18" r="0.8" /><circle cx="-26.28627820710463" cy="-79.07892274470576" fill="#e62a18" r="0.8" /><circle cx="-30.2578216672062" cy="-77.64604737138906" fill="#e62a18" r="0.8" /><circle cx="-34.151693733048944" cy="-76.01385570807778" fill="#e62a18" r="0.8" /><circle cx="-37.95789889088618" cy="-74.18653756736265" fill="#e62a18" r="0.8" /><circle cx="-41.66666666666666" cy="-72.16878364870324" fill="#e62a18" r="0.8" /></g><g data-body-id="last_drift"><circle cx="333.33333333333337" cy="0.0" fill="#f5d020" r="0.8" /><circle cx="333.30918638589225" cy="-4.01215426992432" fill="#f5d020" r="0.8" /><circle cx="333.23674904201937" cy="-8.02372725217895" fill="#f5d020" r="0.8" /><circle cx="333.116031796559" cy="-12.034137743312142" fill="#f5d020" r="0.8" /><circle cx="332.94705213922924" cy="-16.042804708295808" fill="#f5d020" r="0.8" /><circle cx="332.72983455208737" cy="-20.049147364706883" fill="#f5d020" r="0.8" /><circle cx="332.4644105059833" cy="-24.052585266872033" fill="#f5d020" r="0.8" /><circle cx="332.15081845600014" cy="-28.052538389963598" fill="#f5d020" r="0.8" /><circle cx="331.78910383588226" cy="-32.04842721403462" fill="#f5d020" r="0.8" /><circle cx="331.37931905145325" cy="-36.039672807980594" fill="#f5d020" r="0.8" /><circle cx="330.921523473023" cy="-40.02569691341603" fill="#f5d020" r="0.8" /><circle cx="330.4157834267861" cy="-44.0059220284535" fill="#f5d020" r="0.8" /><circle cx="329.8621721852125" cy="-47.97977149137306" fill="#f5d020" r="0.8" /><circle cx="329.2607699564315" cy="-51.94666956416995" fill="#f5d020" r="0.8" /><circle cx="328.6116638726111" cy="-55.90604151596863" fill="#f5d020" r="0.8" /><circle cx="327.9149479773343" cy="-59.857313706290554" fill="#f5d020" r="0.8" /><circle cx="327.1707232119737" cy="-63.799913668164265" fill="#f5d020" r="0.8" /><circle cx="326.3790974010671" cy="-67.73327019106544" fill="#f5d020" r="0.8" /><circle cx="325.5401852366956" cy="-71.6568134036747" fill="#f5d020" r="0.8" /><circle cx="324.6541082618668" cy="-75.56997485644162" fill="#f5d020" r="0.8" /><circle cx="323.7209948529055" cy="-79.47218760394263" fill="#f5d020" r="0.8" /><circle cx="322.7409802008545" cy="-83.36288628702101" fill="#f5d020" r="0.8" /><circle cx="321.7142062918874" cy="-87.24150721469714" fill="#f5d020" r="0.8" /><circle cx="320.640821886738" cy="-91.10748844583688" fill="#f5d020" r="0.8" /><circle cx="319.5209824991471" cy="-94.96026987056668" fill="#f5d020" r="0.8" /><circle cx="318.35485037333183" cy="-98.7992932914231" fill="#f5d020" r="0.8" /><circle cx="317.142594460479" cy="-102.62400250422552" fill="#f5d020" r="0.8" /><circle cx="315.88439039426754" cy="-106.43384337866" fill="#f5d020" r="0.8" /><circle cx="314.5804204654221" cy="-110.22826393856235" fill="#f5d020" r="0.8" /><circle cx="313.23087359530285" cy="-114.00671444188959" fill="#f5d020" r="0.8" /><circle cx="311.8359453085337" cy="-117.76864746036746" fill="#f5d020" r="0.8" /><circle cx="310.3958377046749" cy="-121.51351795880271" fill="#f5d020" r="0.8" /><circle cx="308.9107594289421" cy="-125.24078337404873" fill="#f5d020" r="0.8" /><circle cx="307.38092564197774" cy="-128.9499036936131" fill="#f5d020" r="0.8" /><circle cx="305.80655798867815" cy="-132.64034153389525" fill="#f5d020" r="0.8" /><circle cx="304.1878845660811" cy="-136.31156221804386" fill="#f5d020" r="0.8" /><circle cx="302.52513989031905" cy="-139.96303385342154" fill="#f5d020" r="0.8" /><circle cx="300.8185648626417" cy="-143.59422740866626" fill="#f5d020" r="0.8" /><circle cx="299.06840673451404" cy="-147.20461679033846" fill="#f5d020" r="0.8" /><circle cx="297.2749190717941" cy="-150.7936789191423" fill="#f5d020" r="0.8" /><circle cx="295.43836171799586" cy="-154.3608938057103" fill="#f5d020" r="0.8" /><circle cx="293.55900075664266" cy="-157.90574462594012" fill="#f5d020" r="0.8" /><circle cx="291.6371084727166" cy="-161.42771779587318" fill="#f5d020" r="0.8" /><circle cx="289.67296331320955" cy="-164.92630304610327" fill="#f5d020" r="0.8" /><circle cx="287.6668498467811" cy="-168.40099349570553" fill="#f5d020" r="0.8" /><circle cx="285.6190587225298" cy="-171.85128572567393" fill="#f5d020" r="0.8" /><circle cx="283.52988662788357" cy="-175.2766798518577" fill="#f5d020" r="0.8" /><circle cx="281.39963624561506" cy="-178.67667959738526" fill="#f5d020" r="0.8" /><circle cx="279.2286162099883" cy="-182.0507923645657" fill="#f5d020" r="0.8" /><circle cx="277.01714106204344" cy="-185.39852930625705" fill="#f5d020" r="0.8" /><circle cx="274.76553120402554" cy="-188.71940539669154" fill="#f5d020" r="0.8" /><circle cx="272.47411285296397" cy="-192.01293950174662" fill="#f5d020" r="0.8" /><circle cx="270.1432179934097" cy="-195.27865444865265" fill="#f5d020" r="0.8" /><circle cx="267.7731843293366" cy="-198.5160770951267" fill="#f5d020" r="0.8" /><circle cx="265.3643552352146" cy="-201.72473839792173" fill="#f5d020" r="0.8" /><circle cx="262.917079706261" cy="-204.9041734807828" fill="#f5d020" r="0.8" /><circle cx="260.4317123078772" cy="-208.05392170179877" fill="#f5d020" r="0.8" /><circle cx="257.90861312427876" cy="-211.1735267201413" fill="#f5d020" r="0.8" /><circle cx="255.34814770632605" cy="-214.26253656217978" fill="#f5d020" r="0.8" /><circle cx="252.75068701856216" cy="-217.3205036869645" fill="#f5d020" r="0.8" /><circle cx="250.11660738546746" cy="-220.34698505106678" fill="#f5d020" r="0.8" /><circle cx="247.44629043693666" cy="-223.34154217276804" fill="#f5d020" r="0.8" /><circle cx="244.7401230529878" cy="-226.3037411955877" fill="#f5d020" r="0.8" /><circle cx="241.9984973077103" cy="-229.23315295114114" fill="#f5d020" r="0.8" /><circle cx="239.22181041246097" cy="-232.12935302131808" fill="#f5d020" r="0.8" /><circle cx="236.41046465831482" cy="-234.99192179977337" fill="#f5d020" r="0.8" /><circle cx="233.56486735778083" cy="-237.82044455272003" fill="#f5d020" r="0.8" /><circle cx="230.68543078578983" cy="-240.61451147901636" fill="#f5d020" r="0.8" /><circle cx="227.77257211996312" cy="-243.37371776953924" fill="#f5d020" r="0.8" /><circle cx="224.8267133801713" cy="-246.09766366583293" fill="#f5d020" r="0.8" /><circle cx="221.8482813673915" cy="-248.78595451802704" fill="#f5d020" r="0.8" /><circle cx="218.83770760187113" cy="-251.4382008420142" fill="#f5d020" r="0.8" /><circle cx="215.7954282606092" cy="-254.05401837587885" fill="#f5d020" r="0.8" /><circle cx="212.72188411416192" cy="-256.63302813556993" fill="#f5d020" r="0.8" /><circle cx="209.6175204627828" cy="-259.17485646980873" fill="#f5d020" r="0.8" /><circle cx="206.48278707190772" cy="-261.67913511422415" fill="#f5d020" r="0.8" /><circle cx="203.31813810699097" cy="-264.1455012447073" fill="#f5d020" r="0.8" /><circle cx="200.1240320677062" cy="-266.5735975299783" fill="#f5d020" r="0.8" /><circle cx="196.90093172151703" cy="-268.9630721833568" fill="#f5d020" r="0.8" /><circle cx="193.64930403663163" cy="-271.3135790137297" fill="#f5d020" r="0.8" /><circle cx="190.36962011434676" cy="-273.6247774757075" fill="#f5d020" r="0.8" /><circle cx="187.0623551207941" cy="-275.89633271896355" fill="#f5d020" r="0.8" /><circle cx="183.7279882180977" cy="-278.12791563674745" fill="#f5d020" r="0.8" /><circle cx="180.36700249495135" cy="-280.31920291356664" fill="#f5d020" r="0.8" /><circle cx="176.97988489662896" cy="-282.46987707202885" fill="#f5d020" r="0.8" /><circle cx="173.5671261544342" cy="-284.57962651883895" fill="#f5d020" r="0.8" /><circle cx="170.1292207146028" cy="-286.6481455899429" fill="#f5d020" r="0.8" /><circle cx="166.6666666666667" cy="-288.6751345948129" fill="#f5d020" r="0.8" /><circle cx="163.17996567128944" cy="-290.6602998598672" fill="#f5d020" r="0.8" /><circle cx="159.66962288758518" cy="-292.60335377101796" fill="#f5d020" r="0.8" /><circle cx="156.13614689993005" cy="-294.504014815341" fill="#f5d020" r="0.8" /><circle cx="152.58004964427786" cy="-296.3620076218624" fill="#f5d020" r="0.8" /><circle cx="149.0018463339897" cy="-298.1770630014543" fill="#f5d020" r="0.8" /><circle cx="145.40205538518916" cy="-299.9489179858356" fill="#f5d020" r="0.8" /><circle cx="141.78119834165338" cy="-301.6773158656711" fill="#f5d020" r="0.8" /><circle cx="138.13979979925062" cy="-303.3620062277643" fill="#f5d020" r="0.8" /><circle cx="134.47838732993614" cy="-305.0027449913374" fill="#f5d020" r="0.8" /><circle cx="130.79749140531678" cy="-306.59929444339434" fill="#f5d020" r="0.8" /><circle cx="127.09764531979508" cy="-308.1514232731608" fill="#f5d020" r="0.8" /><circle cx="123.37938511330486" cy="-309.65890660559717" fill="#f5d020" r="0.8" /><circle cx="119.64324949364857" cy="-311.12152603397874" fill="#f5d020" r="0.8" /><circle cx="115.88977975844924" cy="-312.53906965153857" fill="#f5d020" r="0.8" /><circle cx="112.11951971672502" cy="-313.9113320821694" fill="#f5d020" r="0.8" /><circle cx="108.33301561010262" cy="-315.2381145101785" fill="#f5d020" r="0.8" /><circle cx="104.53081603367569" cy="-316.5192247090925" fill="#f5d020" r="0.8" /><circle cx="100.71347185652425" cy="-317.75447706950763" fill="#f5d020" r="0.8" /><circle cx="96.8815361419037" cy="-318.9436926259808" fill="#f5d020" r="0.8" /><circle cx="93.03556406711566" cy="-320.086699082959" fill="#f5d020" r="0.8" /><circle cx="89.17611284307367" cy="-321.183330839741" fill="#f5d020" r="0.8" /><circle cx="85.30374163357253" cy="-322.2334290144706" fill="#f5d020" r="0.8" /><circle cx="81.41901147427704" cy="-323.23684146715493" fill="#f5d020" r="0.8" /><circle cx="77.52248519143684" cy="-324.19342282170777" fill="#f5d020" r="0.8" /><circle cx="73.6147273203441" cy="-325.10303448701075" fill="#f5d020" r="0.8" /><circle cx="69.69630402354233" cy="-325.96554467699355" fill="#f5d020" r="0.8" /><circle cx="65.76778300880002" cy="-326.7808284297268" fill="#f5d020" r="0.8" /><circle cx="61.82973344685994" cy="-327.5487676255268" fill="#f5d020" r="0.8" /><circle cx="57.882725888976815" cy="-328.26925100406936" fill="#f5d020" r="0.8" /><circle cx="53.92733218425496" cy="-328.94217418050874" fill="#f5d020" r="0.8" /><circle cx="49.96412539679766" cy="-329.5674396606015" fill="#f5d020" r="0.8" /><circle cx="45.993679722681065" cy="-330.14495685483155" fill="#f5d020" r="0.8" /><circle cx="42.016570406763144" cy="-330.6746420915348" fill="#f5d020" r="0.8" /><circle cx="38.033373659341606" cy="-331.1564186290219" fill="#f5d020" r="0.8" /><circle cx="34.04466657267144" cy="-331.59021666669656" fill="#f5d020" r="0.8" /><circle cx="30.051027037355134" cy="-331.9759733551681" fill="#f5d020" r="0.8" /><circle cx="26.05303365861615" cy="-332.31363280535777" fill="#f5d020" r="0.8" /><circle cx="22.05126567247062" cy="-332.6031460965955" fill="#f5d020" r="0.8" /><circle cx="18.0463028618058" cy="-332.844471283708" fill="#f5d020" r="0.8" /><circle cx="14.038725472380786" cy="-333.03757340309556" fill="#f5d020" r="0.8" /><circle cx="10.029114128759117" cy="-333.18242447779784" fill="#f5d020" r="0.8" /><circle cx="6.018049750186813" cy="-333.2790035215471" fill="#f5d020" r="0.8" /><circle cx="2.006113466428561" cy="-333.32729654180883" fill="#f5d020" r="0.8" /><circle cx="-2.0061134664285203" cy="-333.32729654180883" fill="#f5d020" r="0.8" /><circle cx="-6.018049750186846" cy="-333.2790035215471" fill="#f5d020" r="0.8" /><circle cx="-10.029114128759003" cy="-333.18242447779784" fill="#f5d020" r="0.8" /><circle cx="-14.038725472380744" cy="-333.03757340309556" fill="#f5d020" r="0.8" /><circle cx="-18.046302861805906" cy="-332.844471283708" fill="#f5d020" r="0.8" /><circle cx="-22.051265672470578" cy="-332.6031460965955" fill="#f5d020" r="0.8" /><circle cx="-26.05303365861611" cy="-332.31363280535777" fill="#f5d020" r="0.8" /><circle cx="-30.05102703735517" cy="-331.9759733551681" fill="#f5d020" r="0.8" /><circle cx="-34.044666572671545" cy="-331.5902166666965" fill="#f5d020" r="0.8" /><circle cx="-38.033373659341564" cy="-331.15641862902197" fill="#f5d020" r="0.8" /><circle cx="-42.0165704067631" cy="-330.6746420915348" fill="#f5d020" r="0.8" /><circle cx="-45.993679722681094" cy="-330.1449568548315" fill="#f5d020" r="0.8" /><circle cx="-49.9641253967977" cy="-329.5674396606015" fill="#f5d020" r="0.8" /><circle cx="-53.927332184254915" cy="-328.94217418050874" fill="#f5d020" r="0.8" /><circle cx="-57.88272588897677" cy="-328.26925100406936" fill="#f5d020" r="0.8" /><circle cx="-61.82973344685982" cy="-327.54876762552686" fill="#f5d020" r="0.8" /><circle cx="-65.76778300880005" cy="-326.7808284297268" fill="#f5d020" r="0.8" /><circle cx="-69.69630402354235" cy="-325.96554467699355" fill="#f5d020" r="0.8" /><circle cx="-73.61472732034406" cy="-325.1030344870108" fill="#f5d020" r="0.8" /><circle cx="-77.52248519143673" cy="-324.19342282170777" fill="#f5d020" r="0.8" /><circle cx="-81.41901147427701" cy="-323.236841467155" fill="#f5d020" r="0.8" /><circle cx="-85.30374163357261" cy="-322.2334290144705" fill="#f5d020" r="0.8" /><circle cx="-89.17611284307355" cy="-321.183330839741" fill="#f5d020" r="0.8" /><circle cx="-93.03556406711562" cy="-320.086699082959" fill="#f5d020" r="0.8" /><circle cx="-96.88153614190365" cy="-318.9436926259808" fill="#f5d020" r="0.8" /><circle cx="-100.7134718565243" cy="-317.7544770695076" fill="#f5d020" r="0.8" /><circle cx="-104.53081603367558" cy="-316.5192247090925" fill="#f5d020" r="0.8" /><circle cx="-108.33301561010259" cy="-315.2381145101785" fill="#f5d020" r="0.8" /><circle cx="-112.11951971672507" cy="-313.9113320821694" fill="#f5d020" r="0.8" /><circle cx="-115.8897797584492" cy="-312.53906965153857" fill="#f5d020" r="0.8" /><circle cx="-119.64324949364861" cy="-311.12152603397874" fill="#f5d020" r="0.8" /><circle cx="-123.37938511330483" cy="-309.65890660559717" fill="#f5d020" r="0.8" /><circle cx="-127.09764531979509" cy="-308.1514232731608" fill="#f5d020" r="0.8" /><circle cx="-130.79749140531675" cy="-306.59929444339434" fill="#f5d020" r="0.8" /><circle cx="-134.47838732993617" cy="-305.0027449913374" fill="#f5d020" r="0.8" /><circle cx="-138.13979979925065" cy="-303.3620062277643" fill="#f5d020" r="0.8" /><circle cx="-141.7811983416534" cy="-301.67731586567106" fill="#f5d020" r="0.8" /><circle cx="-145.4020553851892" cy="-299.9489179858356" fill="#f5d020" r="0.8" /><circle cx="-149.00184633398965" cy="-298.1770630014543" fill="#f5d020" r="0.8" /><circle cx="-152.5800496442777" cy="-296.3620076218625" fill="#f5d020" r="0.8" /><circle cx="-156.13614689993003" cy="-294.504014815341" fill="#f5d020" r="0.8" /><circle cx="-159.66962288758515" cy="-292.60335377101796" fill="#f5d020" r="0.8" /><circle cx="-163.17996567128955" cy="-290.66029985986717" fill="#f5d020" r="0.8" /><circle cx="-166.66666666666663" cy="-288.67513459481296" fill="#f5d020" r="0.8" /><circle cx="-170.12922071460284" cy="-286.6481455899428" fill="#f5d020" r="0.8" /><circle cx="-173.5671261544342" cy="-284.57962651883895" fill="#f5d020" r="0.8" /><circle cx="-176.97988489662887" cy="-282.4698770720289" fill="#f5d020" r="0.8" /><circle cx="-180.3670024949514" cy="-280.31920291356664" fill="#f5d020" r="0.8" /><circle cx="-183.72798821809764" cy="-278.12791563674745" fill="#f5d020" r="0.8" /><circle cx="-187.0623551207941" cy="-275.89633271896355" fill="#f5d020" r="0.8" /><circle cx="-190.36962011434673" cy="-273.6247774757075" fill="#f5d020" r="0.8" /><circle cx="-193.64930403663163" cy="-271.3135790137297" fill="#f5d020" r="0.8" /><circle cx="-196.90093172151714" cy="-268.96307218335676" fill="#f5d020" r="0.8" /><circle cx="-200.1240320677061" cy="-266.5735975299783" fill="#f5d020" r="0.8" /><circle cx="-203.31813810699094" cy="-264.14550124470736" fill="#f5d020" r="0.8" /><circle cx="-206.48278707190772" cy="-261.67913511422415" fill="#f5d020" r="0.8" /><circle cx="-209.61752046278298" cy="-259.1748564698086" fill="#f5d020" r="0.8" /><circle cx="-212.72188411416187" cy="-256.63302813556993" fill="#f5d020" r="0.8" /><circle cx="-215.79542826060924" cy="-254.05401837587885" fill="#f5d020" r="0.8" /><circle cx="-218.83770760187113" cy="-251.43820084201425" fill="#f5d020" r="0.8" /><circle cx="-221.84828136739145" cy="-248.7859545180271" fill="#f5d020" r="0.8" /><circle cx="-224.82671338017144" cy="-246.09766366583284" fill="#f5d020" r="0.8" /><circle cx="-227.77257211996306" cy="-243.37371776953927" fill="#f5d020" r="0.8" /><circle cx="-230.68543078578986" cy="-240.6145114790163" fill="#f5d020" r="0.8" /><circle cx="-233.5648673577808" cy="-237.82044455272006" fill="#f5d020" r="0.8" /><circle cx="-236.41046465831482" cy="-234.99192179977337" fill="#f5d020" r="0.8" /><circle cx="-239.22181041246097" cy="-232.12935302131808" fill="#f5d020" r="0.8" /><circle cx="-241.9984973077102" cy="-229.2331529511412" fill="#f5d020" r="0.8" /><circle cx="-244.7401230529878" cy="-226.3037411955877" fill="#f5d020" r="0.8" /><circle cx="-247.44629043693672" cy="-223.34154217276793" fill="#f5d020" r="0.8" /><circle cx="-250.11660738546746" cy="-220.3469850510668" fill="#f5d020" r="0.8" /><circle cx="-252.75068701856216" cy="-217.32050368696457" fill="#f5d020" r="0.8" /><circle cx="-255.348147706326" cy="-214.26253656217986" fill="#f5d020" r="0.8" /><circle cx="-257.9086131242788" cy="-211.17352672014124" fill="#f5d020" r="0.8" /><circle cx="-260.43171230787726" cy="-208.05392170179877" fill="#f5d020" r="0.8" /><circle cx="-262.91707970626095" cy="-204.90417348078287" fill="#f5d020" r="0.8" /><circle cx="-265.3643552352146" cy="-201.72473839792173" fill="#f5d020" r="0.8" /><circle cx="-267.77318432933646" cy="-198.5160770951268" fill="#f5d020" r="0.8" /><circle cx="-270.1432179934096" cy="-195.2786544486527" fill="#f5d020" r="0.8" /><circle cx="-272.47411285296397" cy="-192.01293950174662" fill="#f5d020" r="0.8" /><circle cx="-274.76553120402554" cy="-188.71940539669154" fill="#f5d020" r="0.8" /><circle cx="-277.01714106204344" cy="-185.3985293062571" fill="#f5d020" r="0.8" /><circle cx="-279.22861620998833" cy="-182.0507923645656" fill="#f5d020" r="0.8" /><circle cx="-281.39963624561506" cy="-178.67667959738523" fill="#f5d020" r="0.8" /><circle cx="-283.5298866278836" cy="-175.27667985185766" fill="#f5d020" r="0.8" /><circle cx="-285.6190587225297" cy="-171.85128572567405" fill="#f5d020" r="0.8" /><circle cx="-287.6668498467811" cy="-168.4009934957055" fill="#f5d020" r="0.8" /><circle cx="-289.6729633132096" cy="-164.92630304610316" fill="#f5d020" r="0.8" /><circle cx="-291.6371084727166" cy="-161.42771779587318" fill="#f5d020" r="0.8" /><circle cx="-293.55900075664266" cy="-157.90574462594014" fill="#f5d020" r="0.8" /><circle cx="-295.43836171799586" cy="-154.36089380571033" fill="#f5d020" r="0.8" /><circle cx="-297.2749190717941" cy="-150.79367891914237" fill="#f5d020" r="0.8" /><circle cx="-299.0684067345141" cy="-147.2046167903384" fill="#f5d020" r="0.8" /><circle cx="-300.81856486264167" cy="-143.59422740866634" fill="#f5d020" r="0.8" /><circle cx="-302.525139890319" cy="-139.96303385342162" fill="#f5d020" r="0.8" /><circle cx="-304.18788456608115" cy="-136.31156221804386" fill="#f5d020" r="0.8" /><circle cx="-305.80655798867815" cy="-132.64034153389522" fill="#f5d020" r="0.8" /><circle cx="-307.38092564197774" cy="-128.94990369361307" fill="#f5d020" r="0.8" /><circle cx="-308.9107594289421" cy="-125.24078337404889" fill="#f5d020" r="0.8" /><circle cx="-310.3958377046749" cy="-121.51351795880274" fill="#f5d020" r="0.8" /><circle cx="-311.8359453085338" cy="-117.76864746036735" fill="#f5d020" r="0.8" /><circle cx="-313.2308735953028" cy="-114.00671444188964" fill="#f5d020" r="0.8" /><circle cx="-314.5804204654221" cy="-110.22826393856242" fill="#f5d020" r="0.8" /><circle cx="-315.8843903942675" cy="-106.43384337866009" fill="#f5d020" r="0.8" /><circle cx="-317.142594460479" cy="-102.6240025042255" fill="#f5d020" r="0.8" /><circle cx="-318.35485037333183" cy="-98.79929329142304" fill="#f5d020" r="0.8" /><circle cx="-319.5209824991471" cy="-94.96026987056676" fill="#f5d020" r="0.8" /><circle cx="-320.640821886738" cy="-91.10748844583688" fill="#f5d020" r="0.8" /><circle cx="-321.7142062918874" cy="-87.24150721469714" fill="#f5d020" r="0.8" /><circle cx="-322.7409802008545" cy="-83.36288628702103" fill="#f5d020" r="0.8" /><circle cx="-323.7209948529055" cy="-79.47218760394266" fill="#f5d020" r="0.8" /><circle cx="-324.6541082618668" cy="-75.56997485644168" fill="#f5d020" r="0.8" /><circle cx="-325.5401852366956" cy="-71.65681340367476" fill="#f5d020" r="0.8" /><circle cx="-326.37909740106716" cy="-67.73327019106537" fill="#f5d020" r="0.8" /><circle cx="-327.1707232119737" cy="-63.79991366816423" fill="#f5d020" r="0.8" /><circle cx="-327.91494797733424" cy="-59.85731370629067" fill="#f5d020" r="0.8" /><circle cx="-328.6116638726111" cy="-55.90604151596877" fill="#f5d020" r="0.8" /><circle cx="-329.2607699564315" cy="-51.94666956416996" fill="#f5d020" r="0.8" /><circle cx="-329.8621721852125" cy="-47.97977149137306" fill="#f5d020" r="0.8" /><circle cx="-330.4157834267861" cy="-44.00592202845352" fill="#f5d020" r="0.8" /><circle cx="-330.921523473023" cy="-40.02569691341607" fill="#f5d020" r="0.8" /><circle cx="-331.37931905145325" cy="-36.0396728079805" fill="#f5d020" r="0.8" /><circle cx="-331.78910383588226" cy="-32.04842721403469" fill="#f5d020" r="0.8" /><circle cx="-332.15081845600014" cy="-28.052538389963537" fill="#f5d020" r="0.8" /><circle cx="-332.4644105059833" cy="-24.052585266872125" fill="#f5d020" r="0.8" /><circle cx="-332.7298345520873" cy="-20.049147364706997" fill="#f5d020" r="0.8" /><circle cx="-332.94705213922924" cy="-16.042804708295794" fill="#f5d020" r="0.8" /><circle cx="-333.116031796559" cy="-12.034137743312138" fill="#f5d020" r="0.8" /><circle cx="-333.23674904201937" cy="-8.023727252178963" fill="#f5d020" r="0.8" /><circle cx="-333.30918638589225" cy="-4.012154269924494" fill="#f5d020" r="0.8" /><circle cx="-333.33333333333337" cy="-4.0821559971578446e-14" fill="#f5d020" r="0.8" /><circle cx="-333.30918638589225" cy="4.012154269924412" fill="#f5d020" r="0.8" /><circle cx="-333.23674904201937" cy="8.023727252178881" fill="#f5d020" r="0.8" /><circle cx="-333.116031796559" cy="12.034137743312206" fill="#f5d020" r="0.8" /><circle cx="-332.94705213922924" cy="16.04280470829571" fill="#f5d020" r="0.8" /><circle cx="-332.72983455208737" cy="20.04914736470677" fill="#f5d020" r="0.8" /><circle cx="-332.4644105059833" cy="24.052585266872047" fill="#f5d020" r="0.8" /><circle cx="-332.15081845600014" cy="28.052538389963456" fill="#f5d020" r="0.8" /><circle cx="-331.78910383588226" cy="32.04842721403461" fill="#f5d020" r="0.8" /><circle cx="-331.37931905145325" cy="36.039672807980715" fill="#f5d020" r="0.8" /><circle cx="-330.921523473023" cy="40.025696913415985" fill="#f5d020" r="0.8" /><circle cx="-330.4157834267861" cy="44.00592202845343" fill="#f5d020" r="0.8" /><circle cx="-329.8621721852125" cy="47.97977149137282" fill="#f5d020" r="0.8" /><circle cx="-329.2607699564315" cy="51.94666956416987" fill="#f5d020" r="0.8" /><circle cx="-328.6116638726111" cy="55.90604151596868" fill="#f5d020" r="0.8" /><circle cx="-327.91494797733424" cy="59.85731370629073" fill="#f5d020" r="0.8" /><circle cx="-327.1707232119737" cy="63.799913668164294" fill="#f5d020" r="0.8" /><circle cx="-326.3790974010671" cy="67.73327019106559" fill="#f5d020" r="0.8" /><circle cx="-325.5401852366956" cy="71.65681340367455" fill="#f5d020" r="0.8" /><circle cx="-324.6541082618668" cy="75.56997485644159" fill="#f5d020" r="0.8" /><circle cx="-323.7209948529055" cy="79.47218760394273" fill="#f5d020" r="0.8" /><circle cx="-322.7409802008545" cy="83.36288628702096" fill="#f5d020" r="0.8" /><circle cx="-321.71420629188736" cy="87.24150721469721" fill="#f5d020" r="0.8" /><circle cx="-320.64082188673797" cy="91.10748844583694" fill="#f5d020" r="0.8" /><circle cx="-319.5209824991471" cy="94.96026987056669" fill="#f5d020" r="0.8" /><circle cx="-318.35485037333183" cy="98.79929329142311" fill="#f5d020" r="0.8" /><circle cx="-317.142594460479" cy="102.6240025042254" fill="#f5d020" r="0.8" /><circle cx="-315.88439039426754" cy="106.43384337866" fill="#f5d020" r="0.8" /><circle cx="-314.5804204654221" cy="110.22826393856248" fill="#f5d020" r="0.8" /><circle cx="-313.23087359530285" cy="114.00671444188957" fill="#f5d020" r="0.8" /><circle cx="-311.83594530853367" cy="117.76864746036756" fill="#f5d020" r="0.8" /><circle cx="-310.395837704675" cy="121.51351795880251" fill="#f5d020" r="0.8" /><circle cx="-308.91075942894213" cy="125.24078337404868" fill="#f5d020" r="0.8" /><circle cx="-307.38092564197774" cy="128.94990369361315" fill="#f5d020" r="0.8" /><circle cx="-305.80655798867815" cy="132.64034153389517" fill="#f5d020" r="0.8" /><circle cx="-304.1878845660811" cy="136.31156221804392" fill="#f5d020" r="0.8" /><circle cx="-302.52513989031905" cy="139.96303385342154" fill="#f5d020" r="0.8" /><circle cx="-300.8185648626417" cy="143.59422740866626" fill="#f5d020" r="0.8" /><circle cx="-299.06840673451404" cy="147.20461679033846" fill="#f5d020" r="0.8" /><circle cx="-297.2749190717942" cy="150.79367891914217" fill="#f5d020" r="0.8" /><circle cx="-295.4383617179959" cy="154.36089380571025" fill="#f5d020" r="0.8" /><circle cx="-293.55900075664266" cy="157.9057446259401" fill="#f5d020" r="0.8" /><circle cx="-291.6371084727166" cy="161.42771779587312" fill="#f5d020" r="0.8" /><circle cx="-289.6729633132095" cy="164.92630304610333" fill="#f5d020" r="0.8" /><circle cx="-287.666849846781" cy="168.40099349570556" fill="#f5d020" r="0.8" /><circle cx="-285.6190587225298" cy="171.85128572567382" fill="#f5d020" r="0.8" /><circle cx="-283.52988662788357" cy="175.2766798518577" fill="#f5d020" r="0.8" /><circle cx="-281.39963624561517" cy="178.67667959738515" fill="#f5d020" r="0.8" /><circle cx="-279.2286162099883" cy="182.05079236456567" fill="#f5d020" r="0.8" /><circle cx="-277.0171410620435" cy="185.39852930625702" fill="#f5d020" r="0.8" /><circle cx="-274.7655312040255" cy="188.71940539669157" fill="#f5d020" r="0.8" /><circle cx="-272.4741128529639" cy="192.01293950174664" fill="#f5d020" r="0.8" /><circle cx="-270.1432179934098" cy="195.2786544486525" fill="#f5d020" r="0.8" /><circle cx="-267.77318432933663" cy="198.51607709512663" fill="#f5d020" r="0.8" /><circle cx="-265.3643552352147" cy="201.72473839792167" fill="#f5d020" r="0.8" /><circle cx="-262.917079706261" cy="204.90417348078282" fill="#f5d020" r="0.8" /><circle cx="-260.4317123078772" cy="208.0539217017988" fill="#f5d020" r="0.8" /><circle cx="-257.90861312427876" cy="211.1735267201413" fill="#f5d020" r="0.8" /><circle cx="-255.34814770632596" cy="214.2625365621799" fill="#f5d020" r="0.8" /><circle cx="-252.75068701856222" cy="217.32050368696449" fill="#f5d020" r="0.8" /><circle cx="-250.11660738546752" cy="220.34698505106675" fill="#f5d020" r="0.8" /><circle cx="-247.4462904369367" cy="223.341542172768" fill="#f5d020" r="0.8" /><circle cx="-244.74012305298783" cy="226.30374119558766" fill="#f5d020" r="0.8" /><circle cx="-241.99849730771027" cy="229.23315295114116" fill="#f5d020" r="0.8" /><circle cx="-239.2218104124609" cy="232.1293530213181" fill="#f5d020" r="0.8" /><circle cx="-236.4104646583148" cy="234.99192179977345" fill="#f5d020" r="0.8" /><circle cx="-233.56486735778094" cy="237.82044455271992" fill="#f5d020" r="0.8" /><circle cx="-230.68543078578995" cy="240.61451147901627" fill="#f5d020" r="0.8" /><circle cx="-227.77257211996312" cy="243.37371776953924" fill="#f5d020" r="0.8" /><circle cx="-224.82671338017138" cy="246.0976636658329" fill="#f5d020" r="0.8" /><circle cx="-221.84828136739154" cy="248.78595451802704" fill="#f5d020" r="0.8" /><circle cx="-218.8377076018711" cy="251.43820084201428" fill="#f5d020" r="0.8" /><circle cx="-215.79542826060919" cy="254.05401837587888" fill="#f5d020" r="0.8" /><circle cx="-212.72188411416184" cy="256.63302813557" fill="#f5d020" r="0.8" /><circle cx="-209.61752046278303" cy="259.17485646980856" fill="#f5d020" r="0.8" /><circle cx="-206.48278707190767" cy="261.67913511422415" fill="#f5d020" r="0.8" /><circle cx="-203.31813810699097" cy="264.1455012447073" fill="#f5d020" r="0.8" /><circle cx="-200.1240320677062" cy="266.5735975299783" fill="#f5d020" r="0.8" /><circle cx="-196.90093172151708" cy="268.9630721833568" fill="#f5d020" r="0.8" /><circle cx="-193.64930403663192" cy="271.31357901372945" fill="#f5d020" r="0.8" /><circle cx="-190.3696201143468" cy="273.62477747570745" fill="#f5d020" r="0.8" /><circle cx="-187.0623551207942" cy="275.8963327189635" fill="#f5d020" r="0.8" /><circle cx="-183.72798821809772" cy="278.1279156367474" fill="#f5d020" r="0.8" /><circle cx="-180.36700249495146" cy="280.3192029135666" fill="#f5d020" r="0.8" /><circle cx="-176.97988489662882" cy="282.46987707202896" fill="#f5d020" r="0.8" /><circle cx="-173.567126154434" cy="284.57962651883906" fill="#f5d020" r="0.8" /><circle cx="-170.12922071460292" cy="286.6481455899428" fill="#f5d020" r="0.8" /><circle cx="-166.66666666666683" cy="288.67513459481285" fill="#f5d020" r="0.8" /><circle cx="-163.1799656712896" cy="290.66029985986717" fill="#f5d020" r="0.8" /><circle cx="-159.6696228875851" cy="292.60335377101796" fill="#f5d020" r="0.8" /><circle cx="-156.13614689992997" cy="294.50401481534107" fill="#f5d020" r="0.8" /><circle cx="-152.58004964427775" cy="296.36200762186246" fill="#f5d020" r="0.8" /><circle cx="-149.00184633398962" cy="298.17706300145437" fill="#f5d020" r="0.8" /><circle cx="-145.40205538518939" cy="299.94891798583546" fill="#f5d020" r="0.8" /><circle cx="-141.78119834165332" cy="301.6773158656711" fill="#f5d020" r="0.8" /><circle cx="-138.13979979925057" cy="303.3620062277643" fill="#f5d020" r="0.8" /><circle cx="-134.47838732993617" cy="305.0027449913374" fill="#f5d020" r="0.8" /><circle cx="-130.79749140531683" cy="306.59929444339434" fill="#f5d020" r="0.8" /><circle cx="-127.0976453197951" cy="308.1514232731608" fill="#f5d020" r="0.8" /><circle cx="-123.37938511330483" cy="309.65890660559717" fill="#f5d020" r="0.8" /><circle cx="-119.64324949364868" cy="311.1215260339787" fill="#f5d020" r="0.8" /><circle cx="-115.88977975844927" cy="312.53906965153857" fill="#f5d020" r="0.8" /><circle cx="-112.11951971672514" cy="313.9113320821694" fill="#f5d020" r="0.8" /><circle cx="-108.33301561010266" cy="315.2381145101785" fill="#f5d020" r="0.8" /><circle cx="-104.53081603367573" cy="316.5192247090925" fill="#f5d020" r="0.8" /><circle cx="-100.71347185652408" cy="317.75447706950763" fill="#f5d020" r="0.8" /><circle cx="-96.88153614190351" cy="318.9436926259809" fill="#f5d020" r="0.8" /><circle cx="-93.03556406711584" cy="320.08669908295894" fill="#f5d020" r="0.8" /><circle cx="-89.17611284307378" cy="321.18333083974096" fill="#f5d020" r="0.8" /><circle cx="-85.30374163357277" cy="322.2334290144705" fill="#f5d020" r="0.8" /><circle cx="-81.41901147427694" cy="323.236841467155" fill="#f5d020" r="0.8" /><circle cx="-77.52248519143674" cy="324.19342282170777" fill="#f5d020" r="0.8" /><circle cx="-73.614727320344" cy="325.1030344870108" fill="#f5d020" r="0.8" /><circle cx="-69.696304023542" cy="325.96554467699366" fill="#f5d020" r="0.8" /><circle cx="-65.76778300880028" cy="326.78082842972674" fill="#f5d020" r="0.8" /><circle cx="-61.829733446859905" cy="327.54876762552686" fill="#f5d020" r="0.8" /><circle cx="-57.882725888976786" cy="328.26925100406936" fill="#f5d020" r="0.8" /><circle cx="-53.92733218425493" cy="328.94217418050874" fill="#f5d020" r="0.8" /><circle cx="-49.964125396797414" cy="329.5674396606015" fill="#f5d020" r="0.8" /><circle cx="-45.99367972268111" cy="330.1449568548315" fill="#f5d020" r="0.8" /><circle cx="-42.01657040676318" cy="330.6746420915348" fill="#f5d020" r="0.8" /><circle cx="-38.03337365934165" cy="331.1564186290219" fill="#f5d020" r="0.8" /><circle cx="-34.04466657267155" cy="331.5902166666965" fill="#f5d020" r="0.8" /><circle cx="-30.05102703735488" cy="331.9759733551681" fill="#f5d020" r="0.8" /><circle cx="-26.053033658616265" cy="332.31363280535777" fill="#f5d020" r="0.8" /><circle cx="-22.051265672470734" cy="332.6031460965955" fill="#f5d020" r="0.8" /><circle cx="-18.046302861805692" cy="332.844471283708" fill="#f5d020" r="0.8" /><circle cx="-14.03872547238068" cy="333.03757340309556" fill="#f5d020" r="0.8" /><circle cx="-10.029114128758936" cy="333.18242447779784" fill="#f5d020" r="0.8" /><circle cx="-6.018049750187002" cy="333.2790035215471" fill="#f5d020" r="0.8" /><circle cx="-2.006113466428676" cy="333.32729654180883" fill="#f5d020" r="0.8" /><circle cx="2.0061134664285536" cy="333.32729654180883" fill="#f5d020" r="0.8" /><circle cx="6.018049750186879" cy="333.2790035215471" fill="#f5d020" r="0.8" /><circle cx="10.02911412875911" cy="333.18242447779784" fill="#f5d020" r="0.8" /><circle cx="14.038725472380557" cy="333.03757340309556" fill="#f5d020" r="0.8" /><circle cx="18.046302861805568" cy="332.844471283708" fill="#f5d020" r="0.8" /><circle cx="22.051265672470613" cy="332.6031460965955" fill="#f5d020" r="0.8" /><circle cx="26.05303365861614" cy="332.31363280535777" fill="#f5d020" r="0.8" /><circle cx="30.051027037355055" cy="331.9759733551681" fill="#f5d020" r="0.8" /><circle cx="34.04466657267172" cy="331.5902166666965" fill="#f5d020" r="0.8" /><circle cx="38.03337365934153" cy="331.15641862902197" fill="#f5d020" r="0.8" /><circle cx="42.01657040676306" cy="330.6746420915348" fill="#f5d020" r="0.8" /><circle cx="45.99367972268099" cy="330.14495685483155" fill="#f5d020" r="0.8" /><circle cx="49.96412539679759" cy="329.5674396606015" fill="#f5d020" r="0.8" /><circle cx="53.92733218425509" cy="328.9421741805087" fill="#f5d020" r="0.8" /><circle cx="57.882725888976665" cy="328.2692510040694" fill="#f5d020" r="0.8" /><circle cx="61.829733446859784" cy="327.54876762552686" fill="#f5d020" r="0.8" /><circle cx="65.76778300880017" cy="326.78082842972674" fill="#f5d020" r="0.8" /><circle cx="69.69630402354217" cy="325.9655446769936" fill="#f5d020" r="0.8" /><circle cx="73.61472732034417" cy="325.10303448701075" fill="#f5d020" r="0.8" /><circle cx="77.52248519143662" cy="324.1934228217078" fill="#f5d020" r="0.8" /><circle cx="81.41901147427683" cy="323.23684146715505" fill="#f5d020" r="0.8" /><circle cx="85.30374163357266" cy="322.2334290144705" fill="#f5d020" r="0.8" /><circle cx="89.17611284307367" cy="321.183330839741" fill="#f5d020" r="0.8" /><circle cx="93.03556406711573" cy="320.086699082959" fill="#f5d020" r="0.8" /><circle cx="96.8815361419034" cy="318.94369262598093" fill="#f5d020" r="0.8" /><circle cx="100.71347185652395" cy="317.7544770695077" fill="#f5d020" r="0.8" /><circle cx="104.53081603367562" cy="316.5192247090925" fill="#f5d020" r="0.8" /><circle cx="108.33301561010255" cy="315.2381145101785" fill="#f5d020" r="0.8" /><circle cx="112.11951971672502" cy="313.9113320821694" fill="#f5d020" r="0.8" /><circle cx="115.88977975844944" cy="312.53906965153845" fill="#f5d020" r="0.8" /><circle cx="119.64324949364855" cy="311.12152603397874" fill="#f5d020" r="0.8" /><circle cx="123.37938511330472" cy="309.6589066055972" fill="#f5d020" r="0.8" /><circle cx="127.09764531979498" cy="308.15142327316084" fill="#f5d020" r="0.8" /><circle cx="130.79749140531698" cy="306.59929444339423" fill="#f5d020" r="0.8" /><circle cx="134.47838732993634" cy="305.00274499133735" fill="#f5d020" r="0.8" /><circle cx="138.13979979925045" cy="303.36200622776437" fill="#f5d020" r="0.8" /><circle cx="141.7811983416535" cy="301.677315865671" fill="#f5d020" r="0.8" /><circle cx="145.40205538518927" cy="299.9489179858355" fill="#f5d020" r="0.8" /><circle cx="149.00184633398976" cy="298.1770630014543" fill="#f5d020" r="0.8" /><circle cx="152.58004964427792" cy="296.36200762186235" fill="#f5d020" r="0.8" /><circle cx="156.13614689992986" cy="294.5040148153411" fill="#f5d020" r="0.8" /><circle cx="159.66962288758523" cy="292.6033537710179" fill="#f5d020" r="0.8" /><circle cx="163.1799656712895" cy="290.66029985986717" fill="#f5d020" r="0.8" /><circle cx="166.6666666666667" cy="288.6751345948129" fill="#f5d020" r="0.8" /><circle cx="170.12922071460306" cy="286.6481455899427" fill="#f5d020" r="0.8" /><circle cx="173.5671261544339" cy="284.5796265188391" fill="#f5d020" r="0.8" /><circle cx="176.97988489662896" cy="282.46987707202885" fill="#f5d020" r="0.8" /><circle cx="180.36700249495135" cy="280.31920291356664" fill="#f5d020" r="0.8" /><circle cx="183.7279882180976" cy="278.12791563674745" fill="#f5d020" r="0.8" /><circle cx="187.06235512079434" cy="275.8963327189634" fill="#f5d020" r="0.8" /><circle cx="190.36962011434673" cy="273.6247774757075" fill="#f5d020" r="0.8" /><circle cx="193.6493040366316" cy="271.31357901372974" fill="#f5d020" r="0.8" /><circle cx="196.900931721517" cy="268.96307218335687" fill="#f5d020" r="0.8" /><circle cx="200.12403206770608" cy="266.5735975299784" fill="#f5d020" r="0.8" /><circle cx="203.3181381069911" cy="264.1455012447072" fill="#f5d020" r="0.8" /><circle cx="206.4827870719078" cy="261.67913511422404" fill="#f5d020" r="0.8" /><circle cx="209.6175204627827" cy="259.17485646980884" fill="#f5d020" r="0.8" /><circle cx="212.72188411416195" cy="256.6330281355698" fill="#f5d020" r="0.8" /><circle cx="215.7954282606091" cy="254.05401837587897" fill="#f5d020" r="0.8" /><circle cx="218.83770760187122" cy="251.43820084201414" fill="#f5d020" r="0.8" /><circle cx="221.84828136739156" cy="248.785954518027" fill="#f5d020" r="0.8" /><circle cx="224.82671338017119" cy="246.09766366583307" fill="#f5d020" r="0.8" /><circle cx="227.77257211996314" cy="243.37371776953924" fill="#f5d020" r="0.8" /><circle cx="230.68543078578986" cy="240.61451147901636" fill="#f5d020" r="0.8" /><circle cx="233.56486735778088" cy="237.82044455271998" fill="#f5d020" r="0.8" /><circle cx="236.41046465831482" cy="234.99192179977342" fill="#f5d020" r="0.8" /><circle cx="239.22181041246074" cy="232.12935302131834" fill="#f5d020" r="0.8" /><circle cx="241.99849730771027" cy="229.23315295114114" fill="#f5d020" r="0.8" /><circle cx="244.74012305298774" cy="226.30374119558775" fill="#f5d020" r="0.8" /><circle cx="247.4462904369366" cy="223.3415421727681" fill="#f5d020" r="0.8" /><circle cx="250.11660738546766" cy="220.3469850510666" fill="#f5d020" r="0.8" /><circle cx="252.75068701856213" cy="217.32050368696457" fill="#f5d020" r="0.8" /><circle cx="255.34814770632596" cy="214.2625365621799" fill="#f5d020" r="0.8" /><circle cx="257.9086131242787" cy="211.1735267201414" fill="#f5d020" r="0.8" /><circle cx="260.43171230787715" cy="208.0539217017989" fill="#f5d020" r="0.8" /><circle cx="262.9170797062611" cy="204.90417348078267" fill="#f5d020" r="0.8" /><circle cx="265.36435523521453" cy="201.72473839792187" fill="#f5d020" r="0.8" /><circle cx="267.77318432933646" cy="198.51607709512686" fill="#f5d020" r="0.8" /><circle cx="270.14321799340973" cy="195.2786544486526" fill="#f5d020" r="0.8" /><circle cx="272.47411285296386" cy="192.01293950174676" fill="#f5d020" r="0.8" /><circle cx="274.7655312040256" cy="188.71940539669143" fill="#f5d020" r="0.8" /><circle cx="277.0171410620435" cy="185.398529306257" fill="#f5d020" r="0.8" /><circle cx="279.22861620998816" cy="182.05079236456587" fill="#f5d020" r="0.8" /><circle cx="281.39963624561506" cy="178.67667959738523" fill="#f5d020" r="0.8" /><circle cx="283.52988662788357" cy="175.2766798518577" fill="#f5d020" r="0.8" /><circle cx="285.6190587225298" cy="171.85128572567393" fill="#f5d020" r="0.8" /><circle cx="287.6668498467811" cy="168.40099349570553" fill="#f5d020" r="0.8" /><circle cx="289.6729633132094" cy="164.92630304610358" fill="#f5d020" r="0.8" /><circle cx="291.6371084727166" cy="161.42771779587324" fill="#f5d020" r="0.8" /><circle cx="293.5590007566426" cy="157.90574462594017" fill="#f5d020" r="0.8" /><circle cx="295.4383617179958" cy="154.36089380571036" fill="#f5d020" r="0.8" /><circle cx="297.2749190717942" cy="150.79367891914214" fill="#f5d020" r="0.8" /><circle cx="299.06840673451404" cy="147.20461679033858" fill="#f5d020" r="0.8" /><circle cx="300.81856486264167" cy="143.59422740866637" fill="#f5d020" r="0.8" /><circle cx="302.525139890319" cy="139.96303385342165" fill="#f5d020" r="0.8" /><circle cx="304.18788456608104" cy="136.31156221804403" fill="#f5d020" r="0.8" /><circle cx="305.80655798867815" cy="132.64034153389514" fill="#f5d020" r="0.8" /><circle cx="307.3809256419777" cy="128.94990369361324" fill="#f5d020" r="0.8" /><circle cx="308.91075942894213" cy="125.24078337404866" fill="#f5d020" r="0.8" /><circle cx="310.3958377046749" cy="121.51351795880264" fill="#f5d020" r="0.8" /><circle cx="311.8359453085336" cy="117.76864746036767" fill="#f5d020" r="0.8" /><circle cx="313.23087359530285" cy="114.00671444188954" fill="#f5d020" r="0.8" /><circle cx="314.58042046542204" cy="110.22826393856259" fill="#f5d020" r="0.8" /><circle cx="315.88439039426754" cy="106.43384337865997" fill="#f5d020" r="0.8" /><circle cx="317.14259446047896" cy="102.62400250422553" fill="#f5d020" r="0.8" /><circle cx="318.35485037333183" cy="98.79929329142307" fill="#f5d020" r="0.8" /><circle cx="319.5209824991471" cy="94.96026987056668" fill="#f5d020" r="0.8" /><circle cx="320.640821886738" cy="91.1074884458369" fill="#f5d020" r="0.8" /><circle cx="321.7142062918874" cy="87.2415072146972" fill="#f5d020" r="0.8" /><circle cx="322.7409802008545" cy="83.36288628702108" fill="#f5d020" r="0.8" /><circle cx="323.7209948529055" cy="79.4721876039427" fill="#f5d020" r="0.8" /><circle cx="324.65410826186684" cy="75.56997485644142" fill="#f5d020" r="0.8" /><circle cx="325.5401852366956" cy="71.65681340367452" fill="#f5d020" r="0.8" /><circle cx="326.3790974010671" cy="67.73327019106556" fill="#f5d020" r="0.8" /><circle cx="327.1707232119737" cy="63.799913668164415" fill="#f5d020" r="0.8" /><circle cx="327.91494797733424" cy="59.857313706290704" fill="#f5d020" r="0.8" /><circle cx="328.6116638726111" cy="55.90604151596851" fill="#f5d020" r="0.8" /><circle cx="329.2607699564315" cy="51.946669564169845" fill="#f5d020" r="0.8" /><circle cx="329.86217218521244" cy="47.97977149137324" fill="#f5d020" r="0.8" /><circle cx="330.4157834267861" cy="44.00592202845341" fill="#f5d020" r="0.8" /><circle cx="330.92152347302294" cy="40.025696913416255" fill="#f5d020" r="0.8" /><circle cx="331.37931905145325" cy="36.03967280798054" fill="#f5d020" r="0.8" /><circle cx="331.78910383588226" cy="32.04842721403458" fill="#f5d020" r="0.8" /><circle cx="332.1508184560001" cy="28.05253838996387" fill="#f5d020" r="0.8" /><circle cx="332.4644105059833" cy="24.05258526687202" fill="#f5d020" r="0.8" /><circle cx="332.72983455208737" cy="20.04914736470689" fill="#f5d020" r="0.8" /><circle cx="332.94705213922924" cy="16.042804708295833" fill="#f5d020" r="0.8" /><circle cx="333.116031796559" cy="12.034137743312177" fill="#f5d020" r="0.8" /><circle cx="333.2367490420193" cy="8.023727252179299" fill="#f5d020" r="0.8" /><circle cx="333.30918638589225" cy="4.012154269924387" fill="#f5d020" r="0.8" /><circle cx="333.33333333333337" cy="8.164311994315689e-14" fill="#f5d020" r="0.8" /></g><ellipse cx="-0.6666666666666667" cy="0.0" data-body-id="far_landing" fill="none" rx="33.333333333333336" ry="33.326665999866634" stroke="#f5d020" stroke-width="0.6" /><g class="drillable" data-action="drill_in:far_landing" data-body-id="far_landing"><polygon data-body-id="far_landing" fill="#f5d020" points="22.563066323043593,-28.901088261653342 27.563066323043593,-23.901088261653342 22.563066323043593,-18.901088261653342 17.563066323043593,-23.901088261653342" stroke="#f5d020" stroke-width="1" /><g class="moon-band" data-parent-id="far_landing"><circle cx="22.563066323043593" cy="-23.901088261653342" fill="none" r="24.0" stroke="#f5d020" stroke-dasharray="2 3" stroke-opacity="0.6" stroke-width="0.4" /><circle cx="46.56306632304359" cy="-23.901088261653342" data-body-id="tethys_watch" fill="#f5d020" r="2.0" /></g></g><ellipse cx="-1.0700000000000003" cy="0.0" data-body-id="deep_root_world" fill="none" rx="35.66666666666667" ry="35.65061305379069" stroke="#f5d020" stroke-width="0.6" /><g class="drillable" data-action="drill_in:deep_root_world" data-body-id="deep_root_world"><polygon data-body-id="deep_root_world" fill="#f5d020" points="7.151716396626111,-39.69049477253123 12.15171639662611,-34.69049477253123 7.151716396626111,-29.69049477253123 2.151716396626111,-34.69049477253123" stroke="#f5d020" stroke-width="1" /><g class="moon-band" data-parent-id="deep_root_world"><circle cx="7.151716396626111" cy="-34.69049477253123" fill="none" r="24.0" stroke="#f5d020" stroke-dasharray="2 3" stroke-opacity="0.6" stroke-width="0.4" /><circle cx="-16.84828360337389" cy="-34.69049477253123" data-body-id="lower_kerel" fill="#f5d020" r="2.0" /></g></g><ellipse cx="-0.0" cy="0.0" data-body-id="gravel_orchard" fill="none" rx="33.333333333333336" ry="33.333333333333336" stroke="#f5d020" stroke-width="0.6" /><polygon data-body-id="gravel_orchard" fill="#f5d020" points="-8.62730150341737,-37.19752754296894 -3.6273015034173692,-32.19752754296894 -8.62730150341737,-27.197527542968942 -13.62730150341737,-32.19752754296894" stroke="#f5d020" stroke-width="1" /><ellipse cx="-0.0" cy="0.0" data-body-id="dead_man_l5" fill="none" rx="33.333333333333336" ry="33.333333333333336" stroke="#f5d020" stroke-width="0.6" /><polygon data-body-id="dead_man_l5" fill="#f5d020" points="32.19752754296895,3.627301503417357 37.19752754296895,8.627301503417357 32.19752754296895,13.627301503417357 27.19752754296895,8.627301503417357" stroke="#f5d020" stroke-width="1" /><ellipse cx="-7.786666666666667" cy="0.0" data-body-id="new_claim" fill="none" rx="97.33333333333334" ry="97.02136671888312" stroke="#f5d020" stroke-width="0.6" /><polygon data-body-id="new_claim" fill="#f5d020" points="-100.06730576770879,25.853360137297113 -95.06730576770879,30.853360137297113 -100.06730576770879,35.853360137297116 -105.06730576770879,30.853360137297113" stroke="#f5d020" stroke-width="1" /><ellipse cx="-8.733333333333334" cy="0.0" data-body-id="red_prospect" fill="none" rx="174.66666666666669" ry="174.4481967041601" stroke="#f5d020" stroke-width="0.6" /><g class="drillable" data-action="drill_in:red_prospect" data-body-id="red_prospect"><circle cx="-17.452154619002165" cy="174.23072499801359" data-body-id="red_prospect" fill="#e62a18" r="6" /><g class="moon-band" data-parent-id="red_prospect"><circle cx="-17.452154619002165" cy="174.23072499801359" fill="none" r="74.0" stroke="#f5d020" stroke-dasharray="2 3" stroke-opacity="0.6" stroke-width="0.4" /><circle cx="56.547845380997835" cy="174.23072499801359" data-body-id="turning_hub" fill="#f5d020" r="2.0" /><circle cx="-17.452154619002165" cy="174.23072499801359" fill="none" r="96.0" stroke="#f5d020" stroke-dasharray="2 3" stroke-opacity="0.6" stroke-width="0.4" /><circle cx="30.54784538099785" cy="91.09228623470747" data-body-id="whitedrift" fill="#f5d020" r="2.0" /><circle cx="-17.452154619002165" cy="174.23072499801359" fill="none" r="38.0" stroke="#f5d020" stroke-dasharray="2 3" stroke-opacity="0.6" stroke-width="0.4" /><circle cx="-17.45215461900216" cy="136.23072499801359" data-body-id="ember_moon" fill="#f5d020" r="2.0" /><circle cx="-17.452154619002165" cy="174.23072499801359" fill="none" r="140.0" stroke="#f5d020" stroke-dasharray="2 3" stroke-opacity="0.6" stroke-width="0.4" /><circle cx="-149.00912152902933" cy="222.1135450636072" data-body-id="the_horn" fill="#f5d020" r="2.0" /><circle cx="-17.452154619002165" cy="174.23072499801359" fill="none" r="118.0" stroke="#f5d020" stroke-dasharray="2 3" stroke-opacity="0.6" stroke-width="0.4" /><circle cx="3.03833034569557" cy="290.43803985345414" data-body-id="dead_lash" fill="#f5d020" r="2.0" /><circle cx="-17.452154619002165" cy="174.23072499801359" fill="none" r="54.0" stroke="#f5d020" stroke-dasharray="2 3" stroke-opacity="0.6" stroke-width="0.4" /><circle cx="-52.16268554207529" cy="132.86432506958877" data-body-id="vael_thain" fill="#e62a18" r="2.0" stroke="#f5d020" stroke-dasharray="3 2" stroke-width="1.4" /></g></g><ellipse cx="-0.0" cy="0.0" data-body-id="compact_anchorage" fill="none" rx="174.66666666666669" ry="174.66666666666669" stroke="#f5d020" stroke-width="0.6" /><polygon data-body-id="compact_anchorage" fill="#f5d020" points="151.26577052768192,82.33333333333341 156.26577052768192,87.33333333333341 151.26577052768192,92.33333333333341 146.26577052768192,87.33333333333341" stroke="#f5d020" stroke-width="1" /><ellipse cx="-0.0" cy="0.0" data-body-id="the_counter" fill="none" rx="174.66666666666669" ry="174.66666666666669" stroke="#f5d020" stroke-width="0.6" /><polygon data-body-id="the_counter" fill="#f5d020" points="4.9479039706125695e-14,-179.66666666666669 5.00000000000005,-174.66666666666669 4.9479039706125695e-14,-169.66666666666669 -4.99999999999995,-174.66666666666669" stroke="#f5d020" stroke-width="1" /><ellipse cx="-2.166666666666667" cy="0.0" data-body-id="grand_gate" fill="none" rx="216.66666666666669" ry="216.65583306248647" stroke="#f5d020" stroke-dasharray="6 5 2 5" stroke-opacity="0.85" stroke-width="0.7" /><polygon data-body-id="grand_gate" fill="#f5d020" points="-190.34020602616093,-113.39650838371038 -185.14420602616093,-110.39650838371038 -185.14420602616093,-104.39650838371038 -190.34020602616093,-101.39650838371038 -195.53620602616093,-104.39650838371038 -195.53620602616093,-110.39650838371038" stroke="#f5d020" stroke-width="1" /><g class="callout-block"><path class="callout-leader" d="M 67.27305606766029 -71.2624440172903 L 280.0 -71.2624440172903 L 280.0 -330.0" fill="none" stroke="#f5d020" stroke-width="1.0" /><rect class="callout-terminator" fill="#f5d020" height="3.0" width="3.0" x="278.5" y="-331.5" /><text class="callout-singleton-title" fill="#f5d020" font-family="Orbitron, monospace" font-size="11" x="284.0" y="-327.0">FAR LANDING</text></g><g class="callout-block"><path class="callout-leader" d="M 22.21028985298924 -107.73440965933867 L 280.0 -107.73440965933867 L 280.0 -356.0" fill="none" stroke="#f5d020" stroke-width="1.0" /><rect class="callout-terminator" fill="#f5d020" height="3.0" width="3.0" x="278.5" y="-357.5" /><text class="callout-singleton-title" fill="#f5d020" font-family="Orbitron, monospace" font-size="11" x="284.0" y="-353.0">DEEP ROOT</text></g><g class="callout-block"><path class="callout-leader" d="M -34.68175204373782 -129.43406072273513 L -296.0 -129.43406072273513 L -296.0 -382.0" fill="none" stroke="#f5d020" stroke-width="1.0" /><rect class="callout-terminator" fill="#f5d020" height="3.0" width="3.0" x="-297.5" y="-383.5" /><text class="callout-singleton-title" fill="#f5d020" font-family="Orbitron, monospace" font-size="11" x="-396.0" y="-379.0">GRAVEL ORCHARD</text></g><g class="callout-block"><path class="callout-leader" d="M 106.25184089179751 28.470094961277276 L 280.0 28.470094961277276 L 280.0 -278.0" fill="none" stroke="#f5d020" stroke-width="1.0" /><rect class="callout-terminator" fill="#f5d020" height="3.0" width="3.0" x="278.5" y="-279.5" /><text class="callout-singleton-title" fill="#f5d020" font-family="Orbitron, monospace" font-size="11" x="284.0" y="-275.0">DEAD MAN'S DRIFT</text></g><g class="callout-block"><path class="callout-leader" d="M -129.69117283563835 39.987170948871785 L -296.0 39.987170948871785 L -296.0 -330.0" fill="none" stroke="#f5d020" stroke-width="1.0" /><rect class="callout-terminator" fill="#f5d020" height="3.0" width="3.0" x="-297.5" y="-331.5" /><text class="callout-singleton-title" fill="#f5d020" font-family="Orbitron, monospace" font-size="11" x="-396.0" y="-327.0">NEW CLAIM</text></g><text class="radial-label" fill="red" font-family="Orbitron, monospace" font-size="10" font-weight="700" letter-spacing="2" paint-order="stroke" stroke="#000000" stroke-linejoin="round" stroke-width="3" text-anchor="middle" x="-19.445517807038506" y="194.1311396469746">RED PROSPECT</text><g class="callout-block"><path class="callout-leader" d="M 167.72025319958624 96.83333333333343 L 280.0 96.83333333333343 L 280.0 -252.0" fill="none" stroke="#f5d020" stroke-width="1.0" /><rect class="callout-terminator" fill="#f5d020" height="3.0" width="3.0" x="278.5" y="-253.5" /><text class="callout-singleton-title" fill="#f5d020" font-family="Orbitron, monospace" font-size="11" x="284.0" y="-249.0">COMPACT ANCHORAGE</text></g><g class="callout-block"><path class="callout-leader" d="M 6.165994833606885e-14 -217.66666666666669 L 280.0 -217.66666666666669 L 280.0 -382.0" fill="none" stroke="#f5d020" stroke-width="1.0" /><rect class="callout-terminator" fill="#f5d020" height="3.0" width="3.0" x="278.5" y="-383.5" /><text class="callout-singleton-title" fill="#f5d020" font-family="Orbitron, monospace" font-size="11" x="284.0" y="-379.0">THE COUNTER</text></g><text class="radial-label" fill="#f5d020" font-family="Orbitron, monospace" font-size="10" font-weight="600" letter-spacing="3" paint-order="stroke" stroke="#000000" stroke-linejoin="round" stroke-width="3" text-anchor="end" x="-207.7587919532891" y="-117.22467526768487">GRAND GATE</text><g class="callout-block"><path class="callout-leader" d="M 46.56306632304359 -23.901088261653342 L 280.0 -23.901088261653342 L 280.0 -304.0" fill="none" stroke="#7a6810" stroke-width="1.0" /><rect class="callout-terminator" fill="#7a6810" height="3.0" width="3.0" x="278.5" y="-305.5" /><text class="callout-singleton-title" fill="#7a6810" font-family="Orbitron, monospace" font-size="11" x="284.0" y="-301.0">TETHYS WATCH</text></g><g class="callout-block"><path class="callout-leader" d="M -16.84828360337389 -34.69049477253123 L -296.0 -34.69049477253123 L -296.0 -356.0" fill="none" stroke="#7a6810" stroke-width="1.0" /><rect class="callout-terminator" fill="#7a6810" height="3.0" width="3.0" x="-297.5" y="-357.5" /><text class="callout-singleton-title" fill="#7a6810" font-family="Orbitron, monospace" font-size="11" x="-396.0" y="-353.0">LOWER KEREL</text></g><g class="callout-block"><path class="callout-leader" d="M -17.45215461900216 136.23072499801359 L -296.0 136.23072499801359 L -296.0 -267.0" fill="none" stroke="#7a6810" stroke-width="1.0" /><rect class="callout-terminator" fill="#7a6810" height="3.0" width="3.0" x="-297.5" y="-268.5" /><rect class="callout-group-border" fill="none" height="94.0" stroke="#7a6810" stroke-width="0.6" width="104.0" x="-400.0" y="-314.0" /><text class="callout-group-title" fill="#7a6810" font-family="Orbitron, monospace" font-size="11" x="-396.0" y="-299.5">RED PROSPECT SYSTEM</text><text class="callout-group-member" fill="#7a6810" font-family="Orbitron, monospace" font-size="10" x="-396.0" y="-284.0">EMBER MOON · 1.06M km</text><text class="callout-group-member" fill="#7a6810" font-family="Orbitron, monospace" font-size="10" x="-396.0" y="-272.0">VAEL THAIN · 0.01 AU</text><text class="callout-group-member" fill="#7a6810" font-family="Orbitron, monospace" font-size="10" x="-396.0" y="-260.0">TURNING HUB · 0.01 AU</text><text class="callout-group-member" fill="#7a6810" font-family="Orbitron, monospace" font-size="10" x="-396.0" y="-248.0">WHITEDRIFT · 0.01 AU</text><text class="callout-group-member" fill="#7a6810" font-family="Orbitron, monospace" font-size="10" x="-396.0" y="-236.0">DEAD LASH · 0.02 AU</text><text class="callout-group-member" fill="#7a6810" font-family="Orbitron, monospace" font-size="10" x="-396.0" y="-224.0">THE HORN · 0.03 AU</text></g></g><g id="layer-flavor"><defs><path d="M -0.0 -333.33333333333337 A 333.33333333333337 333.33333333333337 0 0 1 -0.0 333.33333333333337 A 333.33333333333337 333.33333333333337 0 0 1 -0.0 -333.33333333333337" fill="none" id="curve_orbit_last_drift" stroke="none" /><path d="M 72.16878364870324 -41.666666666666664 A 83.33333333333334 83.33333333333334 0 0 1 -41.66666666666666 -72.16878364870324" fill="none" id="curve_body_broken_drift" stroke="none" /></defs><text fill="#f5d020" font-family="VT323, monospace" font-size="10" font-style="italic" opacity="0.85" paint-order="stroke" stroke="#000000" stroke-linejoin="round" stroke-width="3" text-anchor="middle"><textPath startOffset="50%" xlink:href="#curve_orbit_last_drift">— Last Drift —</textPath></text><text fill="#f5d020" font-family="Orbitron, monospace" font-size="12" font-style="italic" font-weight="700" letter-spacing="2" paint-order="stroke" stroke="#000000" stroke-linejoin="round" stroke-width="3" text-anchor="middle"><textPath startOffset="50%" xlink:href="#curve_body_broken_drift">— broken drift —</textPath></text><g><text fill="#f5d020" font-family="Orbitron, monospace" font-size="20" paint-order="stroke" stroke="#000000" stroke-linejoin="round" stroke-width="3" text-anchor="middle" x="-129.63624321753372" y="-129.63624321753372">?</text><text fill="#f5d020" font-family="Orbitron, monospace" font-size="9" font-style="italic" paint-order="stroke" stroke="#000000" stroke-linejoin="round" stroke-width="3" text-anchor="middle" x="-129.63624321753372" y="-115.63624321753372">absent gate</text></g><text fill="#f5d020" font-family="Orbitron, monospace" font-size="9" paint-order="stroke" stroke="#000000" stroke-linejoin="round" stroke-width="3" text-anchor="middle" x="0" y="380">scale (engraved) — 0 1 2 3 4 5 AU</text><g><text fill="#7a6810" font-family="VT323, monospace" font-size="7" paint-order="stroke" stroke="#000000" stroke-linejoin="round" stroke-width="3" text-anchor="middle" x="1.666666666666667" y="-0.0">000°</text><text fill="#7a6810" font-family="VT323, monospace" font-size="7" paint-order="stroke" stroke="#000000" stroke-linejoin="round" stroke-width="3" text-anchor="middle" x="1.0205389992894612e-16" y="-1.666666666666667">090°</text><text fill="#7a6810" font-family="VT323, monospace" font-size="7" paint-order="stroke" stroke="#000000" stroke-linejoin="round" stroke-width="3" text-anchor="middle" x="-1.666666666666667" y="-2.0410779985789223e-16">180°</text><text fill="#7a6810" font-family="VT323, monospace" font-size="7" paint-order="stroke" stroke="#000000" stroke-linejoin="round" stroke-width="3" text-anchor="middle" x="-3.061616997868383e-16" y="1.666666666666667">270°</text></g></g><g id="layer-party" /></g></svg>