<svg baseProfile="tiny" height="800" version="1.2" viewBox="-400 -400 800 800" width="800" xmlns="http://www.w3.org/2000/svg" xmlns:ev="http://www.w3.org/2001/xml-events" xmlns:xlink="http://www.w3.org/1999/xlink"><defs /><rect fill="#000000" height="800" width="800" x="-400" y="-400" /><g id="viewport"><g id="layer-engraved"><g id="bearing-rose"><circle cx="0" cy="0" fill="none" r="78" stroke="#f5d020" stroke-width="0.5" /><circle cx="0" cy="0" fill="none" r="84" stroke="#f5d020" stroke-width="0.5" /><line stroke="#f5d020" stroke-width="0.6" x1="84.0" x2="94.0" y1="-0.0" y2="-0.0" /><line stroke="#f5d020" stroke-width="0.6" x1="82.72385125302547" x2="86.66308226507431" y1="-14.586446924022148" y2="-15.281039634689868" /><line stroke="#f5d020" stroke-width="0.6" x1="78.9341801460163" x2="82.69295062915994" y1="-28.729692039356173" y2="-30.097772612658847" /><line stroke="#f5d020" stroke-width="0.6" x1="72.74613391789285" x2="77.94228634059948" y1="-41.99999999999999" y2="-44.99999999999999" /><line stroke="#f5d020" stroke-width="0.6" x1="64.34773322199415" x2="67.41191099447006" y1="-53.9941592136693" y2="-56.56530965241545" /><line stroke="#f5d020" stroke-width="0.6" x1="53.994159213669306" x2="56.565309652415465" y1="-64.34773322199415" y2="-67.41191099447006" /><line stroke="#f5d020" stroke-width="0.6" x1="42.00000000000001" x2="45.00000000000001" y1="-72.74613391789285" y2="-77.94228634059948" /><line stroke="#f5d020" stroke-width="0.6" x1="28.72969203935618" x2="30.097772612658858" y1="-78.9341801460163" y2="-82.69295062915994" /><line stroke="#f5d020" stroke-width="0.6" x1="14.586446924022155" x2="15.281039634689876" y1="-82.72385125302547" y2="-86.66308226507431" /><line stroke="#f5d020" stroke-width="0.6" x1="5.143516556418883e-15" x2="5.75583995599256e-15" y1="-84.0" y2="-94.0" /><line stroke="#f5d020" stroke-width="0.6" x1="-14.586446924022145" x2="-15.281039634689867" y1="-82.72385125302547" y2="-86.66308226507431" /><line stroke="#f5d020" stroke-width="0.6" x1="-28.729692039356173" x2="-30.097772612658847" y1="-78.9341801460163" y2="-82.69295062915994" /><line stroke="#f5d020" stroke-width="0.6" x1="-41.999999999999986" x2="-44.999999999999986" y1="-72.74613391789285" y2="-77.94228634059948" /><line stroke="#f5d020" stroke-width="0.6" x1="-53.994159213669306" x2="-56.565309652415465" y1="-64.34773322199415" y2="-67.41191099447006" /><line stroke="#f5d020" stroke-width="0.6" x1="-64.34773322199415" x2="-67.41191099447005" y1="-53.99415921366931" y2="-56.56530965241547" /><line stroke="#f5d020" stroke-width="0.6" x1="-72.74613391789285" x2="-77.94228634059948" y1="-41.99999999999999" y2="-44.99999999999999" /><line stroke="#f5d020" stroke-width="0.6" x1="-78.9341801460163" x2="-82.69295062915994" y1="-28.729692039356188" y2="-30.09777261265886" /><line stroke="#f5d020" stroke-width="0.6" x1="-82.72385125302547" x2="-86.66308226507431" y1="-14.586446924022143" y2="-15.281039634689865" /><line stroke="#f5d020" stroke-width="0.6" x1="-84.0" x2="-94.0" y1="-1.0287033112837767e-14" y2="-1.151167991198512e-14" /><line stroke="#f5d020" stroke-width="0.6" x1="-82.72385125302547" x2="-86.66308226507431" y1="14.586446924022159" y2="15.281039634689881" /><line stroke="#f5d020" stroke-width="0.6" x1="-78.9341801460163" x2="-82.69295062915994" y1="28.729692039356166" y2="30.097772612658844" /><line stroke="#f5d020" stroke-width="0.6" x1="-72.74613391789285" x2="-77.94228634059948" y1="42.00000000000001" y2="45.00000000000001" /><line stroke="#f5d020" stroke-width="0.6" x1="-64.34773322199415" x2="-67.41191099447006" y1="53.9941592136693" y2="56.56530965241545" /><line stroke="#f5d020" stroke-width="0.6" x1="-53.99415921366931" x2="-56.56530965241547" y1="64.34773322199415" y2="67.41191099447005" /><line stroke="#f5d020" stroke-width="0.6" x1="-42.000000000000036" x2="-45.00000000000004" y1="72.74613391789282" y2="77.94228634059945" /><line stroke="#f5d020" stroke-width="0.6" x1="-28.72969203935616" x2="-30.097772612658833" y1="78.9341801460163" y2="82.69295062915994" /><line stroke="#f5d020" stroke-width="0.6" x1="-14.586446924022148" x2="-15.281039634689868" y1="82.72385125302547" y2="86.66308226507431" /><line stroke="#f5d020" stroke-width="0.6" x1="-1.543054966925665e-14" x2="-1.7267519867977678e-14" y1="84.0" y2="94.0" /><line stroke="#f5d020" stroke-width="0.6" x1="14.586446924022118" x2="15.281039634689837" y1="82.72385125302549" y2="86.66308226507431" /><line stroke="#f5d020" stroke-width="0.6" x1="28.729692039356195" x2="30.097772612658872" y1="78.9341801460163" y2="82.69295062915994" /><line stroke="#f5d020" stroke-width="0.6" x1="42.00000000000001" x2="45.00000000000001" y1="72.74613391789285" y2="77.94228634059948" /><line stroke="#f5d020" stroke-width="0.6" x1="53.9941592136693" x2="56.56530965241545" y1="64.34773322199416" y2="67.41191099447008" /><line stroke="#f5d020" stroke-width="0.6" x1="64.34773322199413" x2="67.41191099447005" y1="53.99415921366933" y2="56.565309652415486" /><line stroke="#f5d020" stroke-width="0.6" x1="72.74613391789282" x2="77.94228634059945" y1="42.000000000000036" y2="45.00000000000004" /><line stroke="#f5d020" stroke-width="0.6" x1="78.9341801460163" x2="82.69295062915994" y1="28.729692039356163" y2="30.097772612658837" /><line stroke="#f5d020" stroke-width="0.6" x1="82.72385125302547" x2="86.66308226507431" y1="14.586446924022152" y2="15.281039634689874" /><text fill="#f5d020" font-family="Orbitron, monospace" font-size="9" paint-order="stroke" stroke="#000000" stroke-linejoin="round" stroke-width="3" text-anchor="middle" x="102.0" y="3.0">000</text><text fill="#f5d020" font-family="Orbitron, monospace" font-size="9" paint-order="stroke" stroke="#000000" stroke-linejoin="round" stroke-width="3" text-anchor="middle" x="6.245698675651501e-15" y="-99.0">090</text><text fill="#f5d020" font-family="Orbitron, monospace" font-size="9" paint-order="stroke" stroke="#000000" stroke-linejoin="round" stroke-width="3" text-anchor="middle" x="-102.0" y="2.9999999999999876">180</text><text fill="#f5d020" font-family="Orbitron, monospace" font-size="9" paint-order="stroke" stroke="#000000" stroke-linejoin="round" stroke-width="3" text-anchor="middle" x="-1.8737096026954503e-14" y="105.0">270</text><text fill="#7a6810" font-family="Orbitron, monospace" font-size="7" paint-order="stroke" stroke="#000000" stroke-linejoin="round" stroke-width="3" text-anchor="middle" x="83.13843876330611" y="-45.99999999999999">030</text><text fill="#7a6810" font-family="Orbitron, monospace" font-size="7" paint-order="stroke" stroke="#000000" stroke-linejoin="round" stroke-width="3" text-anchor="middle" x="48.000000000000014" y="-81.13843876330611">060</text><text fill="#7a6810" font-family="Orbitron, monospace" font-size="7" paint-order="stroke" stroke="#000000" stroke-linejoin="round" stroke-width="3" text-anchor="middle" x="-47.999999999999986" y="-81.13843876330611">120</text><text fill="#7a6810" font-family="Orbitron, monospace" font-size="7" paint-order="stroke" stroke="#000000" stroke-linejoin="round" stroke-width="3" text-anchor="middle" x="-83.13843876330611" y="-45.99999999999999">150</text><text fill="#7a6810" font-family="Orbitron, monospace" font-size="7" paint-order="stroke" stroke="#000000" stroke-linejoin="round" stroke-width="3" text-anchor="middle" x="-83.13843876330611" y="50.000000000000014">210</text><text fill="#7a6810" font-family="Orbitron, monospace" font-size="7" paint-order="stroke" stroke="#000000" stroke-linejoin="round" stroke-width="3" text-anchor="middle" x="-48.00000000000004" y="85.13843876330608">240</text><text fill="#7a6810" font-family="Orbitron, monospace" font-size="7" paint-order="stroke" stroke="#000000" stroke-linejoin="round" stroke-width="3" text-anchor="middle" x="48.000000000000014" y="85.13843876330611">300</text><text fill="#7a6810" font-family="Orbitron, monospace" font-size="7" paint-order="stroke" stroke="#000000" stroke-linejoin="round" stroke-width="3" text-anchor="middle" x="83.13843876330608" y="50.00000000000004">330</text></g><g data-body-id="primary_star"><circle cx="0" cy="0" fill="none" r="28.0" stroke="#e62a18" stroke-dasharray="3 2" stroke-width="2.0" /><circle cx="0" cy="0" fill="none" r="20.0" stroke="#e62a18" stroke-width="1.2" /><line stroke="#e62a18" stroke-width="1.4" x1="14.0" x2="22.0" y1="0.0" y2="0.0" /><line stroke="#e62a18" stroke-width="1.4" x1="-14.0" x2="-22.0" y1="0.0" y2="0.0" /><line stroke="#e62a18" stroke-width="1.4" x1="0.0" x2="0.0" y1="14.0" y2="22.0" /><line stroke="#e62a18" stroke-width="1.4" x1="0.0" x2="0.0" y1="-14.0" y2="-22.0" /><circle cx="0" cy="0" fill="#f5d020" r="6.0" stroke="#f5d020" /></g><text fill="#e62a18" font-family="Orbitron, monospace" font-size="11" font-weight="700" paint-order="stroke" stroke="#000000" stroke-linejoin="round" stroke-width="3" text-anchor="middle" x="0" y="-36.0">PRIMARY</text><g data-body-id="tiny_belt"><circle cx="-3.827021247335479e-15" cy="20.833333333333336" fill="#f5d020" r="0.8" /><circle cx="10.41666666666667" cy="18.042195912175806" fill="#f5d020" r="0.8" /></g><ellipse cx="-0.0" cy="0.0" data-body-id="outer_world" fill="none" rx="333.33333333333337" ry="333.33333333333337" stroke="#f5d020" stroke-width="0.6" /><polygon data-body-id="outer_world" fill="#f5d020" points="333.33333333333337,-5.0 338.33333333333337,-0.0 333.33333333333337,5.0 328.33333333333337,-0.0" stroke="#f5d020" stroke-width="1" /><ellipse cx="-0.0" cy="0.0" data-body-id="spread_alpha" fill="none" rx="125.00000000000001" ry="125.00000000000001" stroke="#f5d020" stroke-width="0.6" /><polygon data-body-id="spread_alpha" fill="#f5d020" points="3.540961811029988e-14,-130.0 5.0000000000000355,-125.00000000000001 3.540961811029988e-14,-120.00000000000001 -4.9999999999999645,-125.00000000000001" stroke="#f5d020" stroke-width="1" /><ellipse cx="-0.0" cy="0.0" data-body-id="cluster_a" fill="none" rx="41.66666666666667" ry="41.66666666666667" stroke="#f5d020" stroke-width="0.6" /><polygon data-body-id="cluster_a" fill="#f5d020" points="36.08439182435162,-25.833333333333332 41.08439182435162,-20.833333333333332 36.08439182435162,-15.833333333333332 31.08439182435162,-20.833333333333332" stroke="#f5d020" stroke-width="1" /><ellipse cx="-0.0" cy="0.0" data-body-id="cluster_b" fill="none" rx="41.66666666666667" ry="41.66666666666667" stroke="#f5d020" stroke-width="0.6" /><polygon data-body-id="cluster_b" fill="#f5d020" points="20.83333333333334,-41.08439182435161 25.83333333333334,-36.08439182435161 20.83333333333334,-31.084391824351613 15.83333333333334,-36.08439182435161" stroke="#f5d020" stroke-width="1" /><ellipse cx="-0.0" cy="0.0" data-body-id="cluster_c" fill="none" rx="41.66666666666667" ry="41.66666666666667" stroke="#f5d020" stroke-width="0.6" /><polygon data-body-id="cluster_c" fill="#f5d020" points="1.1803206036766626e-14,-46.66666666666667 5.0000000000000115,-41.66666666666667 1.1803206036766626e-14,-36.66666666666667 -4.9999999999999885,-41.66666666666667" stroke="#f5d020" stroke-width="1" /><ellipse cx="-0.0" cy="0.0" data-body-id="cluster_d" fill="none" rx="43.75000000000001" ry="43.75000000000001" stroke="#f5d020" stroke-width="0.6" /><polygon data-body-id="cluster_d" fill="#f5d020" points="-21.874999999999996,-42.8886114155692 -16.874999999999996,-37.8886114155692 -21.874999999999996,-32.8886114155692 -26.874999999999996,-37.8886114155692" stroke="#f5d020" stroke-width="1" /><ellipse cx="-0.0" cy="0.0" data-body-id="companion_dwarf" fill="none" rx="208.33333333333337" ry="208.33333333333337" stroke="#f5d020" stroke-width="0.6" /><g class="drillable" data-action="drill_in:companion_dwarf" data-body-id="companion_dwarf"><circle cx="-208.33333333333337" cy="-2.551347498223653e-14" data-body-id="companion_dwarf" fill="#e62a18" r="6" /><g class="moon-band" data-parent-id="companion_dwarf"><circle cx="-208.33333333333337" cy="-2.551347498223653e-14" fill="none" r="24.0" stroke="#f5d020" stroke-dasharray="2 3" stroke-opacity="0.6" stroke-width="0.4" /><circle cx="-184.33333333333337" cy="-2.551347498223653e-14" data-body-id="habitat_x1" fill="#f5d020" r="2.0" /><circle cx="-208.33333333333337" cy="-2.551347498223653e-14" fill="none" r="42.0" stroke="#f5d020" stroke-dasharray="2 3" stroke-opacity="0.6" stroke-width="0.4" /><circle cx="-208.33333333333337" cy="-42.00000000000003" data-body-id="habitat_x2" fill="#f5d020" r="2.0" /><circle cx="-208.33333333333337" cy="-2.551347498223653e-14" fill="none" r="60.0" stroke="#f5d020" stroke-dasharray="2 3" stroke-opacity="0.6" stroke-width="0.4" /><circle cx="-268.33333333333337" cy="-3.286135577712065e-14" data-body-id="habitat_x3" fill="#f5d020" r="2.0" /></g></g><ellipse cx="-0.0" cy="0.0" data-body-id="lonely_companion" fill="none" rx="270.83333333333337" ry="270.83333333333337" stroke="#f5d020" stroke-width="0.6" /><g class="drillable" data-action="drill_in:lonely_companion" data-body-id="lonely_companion"><circle cx="-4.975127621536123e-14" cy="270.83333333333337" data-body-id="lonely_companion" fill="#e62a18" r="6" /><g class="moon-band" data-parent-id="lonely_companion"><circle cx="-4.975127621536123e-14" cy="270.83333333333337" fill="none" r="24.0" stroke="#f5d020" stroke-dasharray="2 3" stroke-opacity="0.6" stroke-width="0.4" /><circle cx="23.99999999999995" cy="270.83333333333337" data-body-id="habitat_y1" fill="#f5d020" r="2.0" /></g></g><ellipse cx="-0.0" cy="0.0" data-body-id="habitat_with_moons" fill="none" rx="91.66666666666669" ry="91.66666666666669" stroke="#f5d020" stroke-width="0.6" /><g class="drillable" data-action="drill_in:habitat_with_moons" data-body-id="habitat_with_moons"><polygon data-body-id="habitat_with_moons" fill="#f5d020" points="64.81812160876686,59.81812160876689 69.81812160876686,64.81812160876689 64.81812160876686,69.81812160876689 59.81812160876686,64.81812160876689" stroke="#f5d020" stroke-width="1" /><g class="moon-band" data-parent-id="habitat_with_moons"><circle cx="64.81812160876686" cy="64.81812160876689" fill="none" r="24.0" stroke="#f5d020" stroke-dasharray="2 3" stroke-opacity="0.6" stroke-width="0.4" /><circle cx="88.81812160876686" cy="64.81812160876689" data-body-id="moon_z1" fill="#f5d020" r="2.0" /><circle cx="64.81812160876686" cy="64.81812160876689" fill="none" r="42.0" stroke="#f5d020" stroke-dasharray="2 3" stroke-opacity="0.6" stroke-width="0.4" /><circle cx="22.81812160876686" cy="64.81812160876689" data-body-id="moon_z2" fill="#f5d020" r="2.0" /></g></g><ellipse cx="-0.0" cy="0.0" data-body-id="spread_beta" fill="none" rx="187.50000000000003" ry="187.50000000000003" stroke="#f5d020" stroke-width="0.6" /><polygon data-body-id="spread_beta" fill="#f5d020" points="-143.6333330848084,115.52267681622612 -138.6333330848084,120.52267681622612 -143.6333330848084,125.52267681622612 -148.6333330848084,120.52267681622612" stroke="#f5d020" stroke-width="1" /><text fill="#f5d020" font-family="Orbitron, monospace" font-size="12" font-style="italic" font-weight="700" letter-spacing="2" paint-order="stroke" stroke="#000000" stroke-linejoin="round" stroke-width="3" text-anchor="middle"><textPath startOffset="50%" xlink:href="#curve_orbit_outer_world">— OUTER WORLD —</textPath></text><g class="callout-block"><path class="callout-leader" d="M 4.079188006306545e-14 -144.0 L 280.0 -144.0 L 280.0 -377.0" fill="none" stroke="#f5d020" stroke-width="1.0" /><rect class="callout-terminator" fill="#f5d020" height="3.0" width="3.0" x="278.5" y="-378.5" /><text class="callout-singleton-title" fill="#f5d020" font-family="Orbitron, monospace" font-size="11" x="284.0" y="-379.0">SPREAD ALPHA</text><text class="callout-singleton-tag" fill="#7a6810" font-family="VT323, monospace" font-size="10" font-style="italic" x="284.0" y="-368.5">habitat · 3.0 AU</text></g><g class="callout-block"><path class="callout-leader" d="M 84.870489570875 -48.999999999999986 L 280.0 -48.999999999999986 L 280.0 -294.0" fill="none" stroke="#f5d020" stroke-width="1.0" /><rect class="callout-terminator" fill="#f5d020" height="3.0" width="3.0" x="278.5" y="-295.5" /><text class="callout-singleton-title" fill="#f5d020" font-family="Orbitron, monospace" font-size="11" x="284.0" y="-291.0">CLUSTER ALPHA</text></g><g class="callout-block"><path class="callout-leader" d="M 49.000000000000014 -84.87048957087498 L 280.0 -84.87048957087498 L 280.0 -320.0" fill="none" stroke="#f5d020" stroke-width="1.0" /><rect class="callout-terminator" fill="#f5d020" height="3.0" width="3.0" x="278.5" y="-321.5" /><text class="callout-singleton-title" fill="#f5d020" font-family="Orbitron, monospace" font-size="11" x="284.0" y="-317.0">CLUSTER BETA</text></g><g class="callout-block"><path class="callout-leader" d="M 3.116046393706389e-14 -110.0 L 280.0 -110.0 L 280.0 -346.0" fill="none" stroke="#f5d020" stroke-width="1.0" /><rect class="callout-terminator" fill="#f5d020" height="3.0" width="3.0" x="278.5" y="-347.5" /><text class="callout-singleton-title" fill="#f5d020" font-family="Orbitron, monospace" font-size="11" x="284.0" y="-343.0">CLUSTER GAMMA</text></g><g class="callout-block"><path class="callout-leader" d="M -48.999999999999986 -84.870489570875 L -296.0 -84.870489570875 L -296.0 -382.0" fill="none" stroke="#f5d020" stroke-width="1.0" /><rect class="callout-terminator" fill="#f5d020" height="3.0" width="3.0" x="-297.5" y="-383.5" /><text class="callout-singleton-title" fill="#f5d020" font-family="Orbitron, monospace" font-size="11" x="-396.0" y="-379.0">CLUSTER DELTA</text></g><g class="callout-block"><path class="callout-leader" d="M -228.33333333333337 -2.7962768580531236e-14 L -296.0 -2.7962768580531236e-14 L -296.0 -292.0" fill="none" stroke="#f5d020" stroke-width="1.0" /><rect class="callout-terminator" fill="#f5d020" height="3.0" width="3.0" x="-297.5" y="-293.5" /><text class="callout-singleton-title" fill="#f5d020" font-family="Orbitron, monospace" font-size="11" x="-396.0" y="-289.0">COMPANION DWARF</text></g><g class="callout-block"><path class="callout-leader" d="M -5.3425216612803284e-14 290.83333333333337 L 280.0 290.83333333333337 L 280.0 -164.0" fill="none" stroke="#f5d020" stroke-width="1.0" /><rect class="callout-terminator" fill="#f5d020" height="3.0" width="3.0" x="278.5" y="-165.5" /><text class="callout-singleton-title" fill="#f5d020" font-family="Orbitron, monospace" font-size="11" x="284.0" y="-161.0">LONELY COMPANION</text></g><g class="callout-block"><path class="callout-leader" d="M 78.25315045131126 78.25315045131128 L 280.0 78.25315045131128 L 280.0 -242.0" fill="none" stroke="#f5d020" stroke-width="1.0" /><rect class="callout-terminator" fill="#f5d020" height="3.0" width="3.0" x="278.5" y="-243.5" /><text class="callout-singleton-title" fill="#f5d020" font-family="Orbitron, monospace" font-size="11" x="284.0" y="-239.0">HABITAT WITH MOONS</text></g><text class="radial-label" fill="#f5d020" font-family="Orbitron, monospace" font-size="10" font-weight="700" letter-spacing="2" paint-order="stroke" stroke="#000000" stroke-linejoin="round" stroke-width="3" text-anchor="end" x="-158.18817750406905" y="132.7356414002703">SPREAD BETA</text><g class="callout-block"><path class="callout-leader" d="M -184.33333333333337 -2.551347498223653e-14 L -296.0 -2.551347498223653e-14 L -296.0 -337.0" fill="none" stroke="#7a6810" stroke-width="1.0" /><rect class="callout-terminator" fill="#7a6810" height="3.0" width="3.0" x="-297.5" y="-338.5" /><rect class="callout-group-border" fill="none" height="58.0" stroke="#7a6810" stroke-width="0.6" width="104.0" x="-400.0" y="-366.0" /><text class="callout-group-title" fill="#7a6810" font-family="Orbitron, monospace" font-size="11" x="-396.0" y="-351.5">COMPANION DWARF SYSTEM</text><text class="callout-group-member" fill="#7a6810" font-family="Orbitron, monospace" font-size="10" x="-396.0" y="-336.0">HABITAT X-1 · 0.75M km</text><text class="callout-group-member" fill="#7a6810" font-family="Orbitron, monospace" font-size="10" x="-396.0" y="-324.0">HABITAT X-2 · 0.01 AU</text><text class="callout-group-member" fill="#7a6810" font-family="Orbitron, monospace" font-size="10" x="-396.0" y="-312.0">HABITAT X-3 · 0.01 AU</text></g><g class="callout-block"><path class="callout-leader" d="M 23.99999999999995 270.83333333333337 L 280.0 270.83333333333337 L 280.0 -190.0" fill="none" stroke="#7a6810" stroke-width="1.0" /><rect class="callout-terminator" fill="#7a6810" height="3.0" width="3.0" x="278.5" y="-191.5" /><text class="callout-singleton-title" fill="#7a6810" font-family="Orbitron, monospace" font-size="11" x="284.0" y="-187.0">HABITAT Y-1</text></g><g class="callout-block"><path class="callout-leader" d="M 88.81812160876686 64.81812160876689 L 280.0 64.81812160876689 L 280.0 -268.0" fill="none" stroke="#7a6810" stroke-width="1.0" /><rect class="callout-terminator" fill="#7a6810" height="3.0" width="3.0" x="278.5" y="-269.5" /><text class="callout-singleton-title" fill="#7a6810" font-family="Orbitron, monospace" font-size="11" x="284.0" y="-265.0">MOON Z-1</text></g><g class="callout-block"><path class="callout-leader" d="M 22.81812160876686 64.81812160876689 L 280.0 64.81812160876689 L 280.0 -216.0" fill="none" stroke="#7a6810" stroke-width="1.0" /><rect class="callout-terminator" fill="#7a6810" height="3.0" width="3.0" x="278.5" y="-217.5" /><text class="callout-singleton-title" fill="#7a6810" font-family="Orbitron, monospace" font-size="11" x="284.0" y="-213.0">MOON Z-2</text></g></g><g id="layer-flavor"><defs><path d="M -0.0 -333.33333333333337 A 333.33333333333337 333.33333333333337 0 0 1 -0.0 333.33333333333337 A 333.33333333333337 333.33333333333337 0 0 1 -0.0 -333.33333333333337" fill="none" id="curve_orbit_outer_world" stroke="none" /><path d="M -3.827021247335479e-15 20.833333333333336 A 20.833333333333336 20.833333333333336 0 0 1 10.41666666666667 18.042195912175806" fill="none" id="curve_body_tiny_belt" stroke="none" /></defs><text fill="#f5d020" font-family="Orbitron, monospace" font-size="12" font-style="italic" font-weight="700" letter-spacing="2" paint-order="stroke" stroke="#000000" stroke-linejoin="round" stroke-width="3" text-anchor="middle"><textPath startOffset="50%" xlink:href="#curve_orbit_outer_world">— OUTER WORLD —</textPath></text><text fill="#f5d020" font-family="Orbitron, monospace" font-size="12" font-style="italic" font-weight="700" letter-spacing="2" paint-order="stroke" stroke="#000000" stroke-linejoin="round" stroke-width="3" text-anchor="middle"><textPath startOffset="50%" xlink:href="#curve_body_tiny_belt">— TINY BELT —</textPath></text></g><g id="layer-party" /></g></svg>